<?xml version="1.0" encoding="utf-8"?>
<!-- Generator: Adobe Illustrator 16.0.0, SVG Export Plug-In . SVG Version: 6.00 Build 0)  -->
<!DOCTYPE svg PUBLIC "-//W3C//DTD SVG 1.1//EN" "http://www.w3.org/Graphics/SVG/1.1/DTD/svg11.dtd">
<svg version="1.1" id="Layer_1" xmlns="http://www.w3.org/2000/svg" xmlns:xlink="http://www.w3.org/1999/xlink" x="0px" y="0px"
	 width="494px" height="153px" viewBox="0 0 494 153" enable-background="new 0 0 494 153" xml:space="preserve">
<path fill="#55565A" d="M139.981,22.308c15.651,0,28.056,11.905,28.056,27.224c0,15.318-12.405,27.223-28.056,27.223
	c-15.651,0-28.056-11.904-28.056-27.223C111.925,34.213,124.33,22.308,139.981,22.308 M157.88,49.532
	c0-10.157-8.491-18.066-17.899-18.066c-9.408,0-17.899,7.909-17.899,18.066c0,10.156,8.491,18.065,17.899,18.065
	C149.389,67.598,157.88,59.688,157.88,49.532"/>
<path fill="#55565A" d="M173.111,39.042h9.574v36.631h-9.574V39.042z M173.278,30.883c0-2.664,2.165-4.829,4.746-4.829
	c2.664,0,4.828,2.165,4.828,4.829s-2.164,4.746-4.828,4.746C175.443,35.629,173.278,33.547,173.278,30.883"/>
<rect x="188.345" y="23.39" fill="#55565A" width="9.574" height="52.282"/>
<path fill="#82BC00" d="M206.159,23.391h22.062c17.649,0,28.056,12.321,28.056,26.142c0,13.819-10.823,26.141-28.056,26.141h-22.062
	V23.391z M228.221,66.515c11.239,0,18.399-7.742,18.399-16.982c0-9.241-7.16-16.983-18.399-16.983h-12.405v33.966H228.221z"/>
<path fill="#82BC00" d="M261.35,39.042h9.574v36.631h-9.574V39.042z M261.517,30.883c0-2.664,2.165-4.829,4.745-4.829
	c2.664,0,4.829,2.165,4.829,4.829s-2.165,4.746-4.829,4.746C263.682,35.629,261.517,33.547,261.517,30.883"/>
<polygon fill="#82BC00" points="271.838,39.042 283.077,39.042 292.151,58.606 301.976,39.042 312.381,39.042 292.151,77.921 "/>
<path fill="#82BC00" d="M344.764,71.511c-3.663,3.08-8.741,4.911-14.068,4.911c-11.489,0-20.73-8.325-20.73-19.064
	s8.409-19.064,19.897-19.064s18.98,8.325,18.98,19.064v2.747h-29.304c1.332,4.829,5.994,8.242,11.156,8.242
	c3.162,0,5.91-0.999,8.407-3.58L344.764,71.511z M338.77,52.279c-1.415-3.33-4.579-5.911-8.907-5.911
	c-4.246,0-7.742,2.331-9.49,5.911H338.77z"/>
<path fill="#82BC00" d="M352.587,55.109c0-8.741,6.66-16.067,17.482-16.067v8.575c-4.662,0-7.992,2.83-7.992,8.658v19.397h-9.49
	V55.109z"/>
<path fill="#82BC00" d="M374.23,64.101c3.08,2.082,7.159,4.246,10.988,4.246c1.998,0,5.578-0.5,5.578-3.247
	c0-5.661-18.731-4.412-18.731-15.984c0-7.409,6.993-10.739,13.487-10.739c4.911,0,10.157,2.164,14.07,4.913l-4.246,6.992
	c-2.748-1.499-6.661-3.83-9.908-3.83c-1.498,0-3.746,0.333-3.746,2.248c0,5.827,18.732,3.663,18.732,16.317
	c0,7.909-8.159,11.322-15.069,11.322c-5.495,0-10.573-2.164-15.151-5.078L374.23,64.101z"/>
<path fill="#82BC00" d="M404.115,39.042h9.574v36.631h-9.574V39.042z M404.282,30.883c0-2.664,2.165-4.829,4.745-4.829
	c2.664,0,4.829,2.165,4.829,4.829s-2.165,4.746-4.829,4.746C406.447,35.629,404.282,33.547,404.282,30.883"/>
<path fill="#82BC00" d="M425.926,47.45h-8.242v-8.408h8.242V27.637h9.574v11.405h11.156v8.408h-11.073v10.989
	c0,5.828,3.164,8.741,7.826,8.741v8.492c-10.906,0-17.483-7.326-17.483-16.067V47.45z"/>
<path fill="#82BC00" d="M457.559,77.505c0,5.078,4.08,7.742,8.242,7.742c4.246,0,7.909-3.414,7.909-7.659v-2.747
	c-2.331,0.998-4.995,1.498-7.909,1.498c-10.323,0-17.398-7.326-17.398-15.818V39.042h9.572v20.063c0,5.828,3.247,9.158,7.826,9.158
	c4.662,0,7.909-3.33,7.909-9.158V39.042h9.658v38.463c0,8.491-7.161,15.817-17.484,15.817c-10.406,0-17.148-7.076-17.148-15.817
	H457.559z"/>
<path fill="#55565A" d="M221.769,103.611h23.311v20.813c-2.581,2.831-10.407,10.823-23.311,10.823
	c-15.651,0-28.056-11.904-28.056-27.223s12.072-27.224,27.723-27.224c8.325,0,16.817,3.413,22.645,10.739l-7.993,5.994
	c-3.33-4.828-8.741-7.576-14.652-7.576c-9.407,0-17.566,7.909-17.566,18.066c0,10.156,8.492,18.065,17.899,18.065
	c4.995,0,10.49-1.75,13.737-4.995l-0.084-8.492h-13.653V103.611z"/>
<rect x="251.569" y="81.883" fill="#55565A" width="9.574" height="52.282"/>
<path fill="#55565A" d="M285.119,96.785c11.489,0,20.646,8.325,20.646,19.064s-9.157,19.064-20.646,19.064
	c-11.489,0-20.729-8.325-20.729-19.064S273.629,96.785,285.119,96.785 M285.119,126.839c5.994,0,11.489-4.828,11.489-10.989
	s-5.495-10.989-11.489-10.989c-6.077,0-11.489,4.828-11.489,10.989S279.042,126.839,285.119,126.839"/>
<path fill="#55565A" d="M308.926,81.883h9.74v15.651h9.823c11.656,0,18.816,8.741,18.816,18.981s-7.41,18.481-19.066,18.481
	c-11.655,0-19.23-7.992-19.23-18.231L308.926,81.883z M318.666,116.516c0,4.662,2.83,9.491,9.656,9.491
	c6.827,0,9.324-5.079,9.324-9.741s-3.08-9.74-9.906-9.74h-9.074V116.516z"/>
<path fill="#55565A" d="M368.282,134.165c-11.656,0-18.816-8.158-18.816-18.398s7.41-18.232,19.066-18.232
	c11.653,0,19.313,7.992,19.229,18.232v18.398H368.282z M378.104,125.174v-9.157c0.083-4.662-2.83-9.491-9.656-9.491
	s-9.324,4.829-9.324,9.491s3.08,9.157,9.907,9.157H378.104z"/>
<rect x="391.756" y="81.883" fill="#55565A" width="9.573" height="52.282"/>
<path fill="#55565A" d="M100.96,70.683C87.78,49.851,74.126,29.247,60.716,8.542c-0.003-0.001-0.003-0.004-0.005-0.005
	C47.303,29.239,33.436,49.708,20.458,70.683C5.964,94.105,15,125.768,39.604,138.039c23.1,11.521,52.009,1.769,63.512-21.295
	C110.362,102.215,109.532,84.481,100.96,70.683"/>
<path fill="#FFFFFF" d="M70.474,64.322c3.995,1.421,6.869,5.244,6.869,9.717c0,3.569-1.837,6.73-4.618,8.585l-0.593-1.023
	c-0.627-1.083-0.748-2.334-0.444-3.465c0.042-0.158,0.088-0.307,0.145-0.457c0.774-1.013,1.237-2.277,1.237-3.64
	c0-3.32-2.722-6.042-6.044-6.042h-4.318c2.062-0.62,3.559-2.534,3.559-4.794c0-2.769-2.242-5.011-5.006-5.011
	c-2.769,0-5.013,2.242-5.013,5.011c0,2.26,1.505,4.174,3.565,4.794h-3.986c-1.359,0-2.452,0.206-3.659,1.006
	c-1.481-0.843-3.074-1.316-4.674-1.468c1.189-1.458,2.764-2.581,4.55-3.213c-0.047-0.369-0.07-0.744-0.07-1.119
	c0-5.128,4.157-9.282,9.287-9.282c5.124,0,9.279,4.154,9.279,9.282C70.539,63.579,70.516,63.954,70.474,64.322 M45.204,74.834
	c1.733-0.461,3.572,0.119,4.696,1.493c0.931,2.243,3.133,3.747,5.586,3.747h8.865c0.088,1.451,0.45,2.902,1.101,4.272h-9.966
	C49.994,84.347,45.608,80.061,45.204,74.834"/>
<path fill="#FFFFFF" d="M39.775,71.393c3.232-2.746,7.981-3.324,11.852-1.088c3.097,1.785,4.917,4.957,5.127,8.288h-1.176
	c-1.252,0-2.394-0.515-3.226-1.347c-0.116-0.11-0.221-0.228-0.321-0.35c-0.492-1.179-1.359-2.207-2.543-2.893
	c-2.867-1.656-6.586-0.661-8.249,2.213l-2.159,3.741c0.491-2.095-0.412-4.348-2.374-5.486c-2.398-1.38-5.461-0.56-6.843,1.838
	c-1.382,2.394-0.563,5.457,1.831,6.843c1.962,1.129,4.37,0.785,5.937-0.69l-1.99,3.453c-0.678,1.178-1.053,2.226-0.959,3.666
	c-1.47,0.864-2.683,2.007-3.607,3.319c-0.674-1.764-0.856-3.689-0.515-5.553c-0.341-0.144-0.674-0.308-1.001-0.496
	c-4.439-2.563-5.961-8.242-3.397-12.679c2.564-4.442,8.239-5.963,12.682-3.4C39.171,70.965,39.482,71.171,39.775,71.393
	 M36.25,98.531c0.469-1.732,1.885-3.038,3.642-3.326c2.407,0.316,4.812-0.837,6.038-2.961l4.431-7.668
	c1.3,0.643,2.741,1.059,4.251,1.183l-4.975,8.622C46.882,99.139,40.981,100.79,36.25,98.531"/>
<path fill="#FFFFFF" d="M30.554,101.503c-0.761-4.172,1.111-8.569,4.982-10.806c3.099-1.785,6.758-1.773,9.752-0.291l-0.587,1.018
	c-0.633,1.088-1.652,1.821-2.782,2.125c-0.158,0.041-0.311,0.071-0.469,0.1c-1.264-0.164-2.594,0.07-3.776,0.748
	c-2.869,1.66-3.871,5.379-2.208,8.25l2.16,3.744c-1.568-1.475-3.975-1.82-5.934-0.685c-2.396,1.382-3.216,4.444-1.835,6.837
	c1.383,2.4,4.451,3.221,6.845,1.839c1.962-1.135,2.864-3.391,2.372-5.485l1.996,3.449c0.674,1.176,1.399,2.025,2.693,2.67
	c0.019,1.703,0.398,3.317,1.073,4.775c-1.863-0.299-3.62-1.105-5.061-2.33c-0.298,0.223-0.608,0.428-0.935,0.621
	c-4.445,2.563-10.12,1.043-12.684-3.402c-2.565-4.436-1.042-10.115,3.396-12.678C29.88,101.816,30.213,101.65,30.554,101.503
	 M52.3,118.123c-1.263-1.271-1.686-3.15-1.053-4.813c1.475-1.927,1.676-4.59,0.45-6.709l-4.431-7.672
	c1.211-0.803,2.288-1.84,3.156-3.092l4.977,8.627C58.15,109.227,56.628,115.159,52.3,118.123"/>
<path fill="#FFFFFF" d="M52.031,124.544c-3.992-1.423-6.868-5.25-6.868-9.718c0-3.576,1.838-6.735,4.614-8.587l0.592,1.021
	c0.627,1.088,0.754,2.333,0.451,3.469c-0.042,0.152-0.094,0.307-0.147,0.449c-0.78,1.023-1.236,2.283-1.236,3.648
	c0,3.32,2.723,6.042,6.035,6.042h4.33c-2.061,0.62-3.566,2.528-3.566,4.793c0,2.769,2.241,5.01,5.01,5.01
	c2.765,0,5.007-2.241,5.013-5.01c0-2.265-1.504-4.173-3.563-4.793h3.985c1.358,0,2.455-0.207,3.654-1.007
	c1.485,0.837,3.08,1.316,4.679,1.463c-1.195,1.464-2.77,2.58-4.55,3.22c0.047,0.367,0.069,0.738,0.069,1.117
	c0,5.129-4.156,9.284-9.287,9.284c-5.129,0-9.287-4.155-9.287-9.284C51.959,125.282,51.983,124.911,52.031,124.544 M77.302,114.023
	c-1.738,0.463-3.571-0.108-4.7-1.485c-0.932-2.248-3.134-3.754-5.586-3.754h-8.859c-0.094-1.444-0.452-2.896-1.102-4.271h9.961
	C72.514,104.514,76.898,108.803,77.302,114.023"/>
<path fill="#FFFFFF" d="M82.726,117.471c-3.233,2.746-7.982,3.328-11.851,1.092c-3.1-1.787-4.914-4.965-5.13-8.295h1.177
	c1.259,0,2.397,0.515,3.23,1.345c0.111,0.11,0.217,0.233,0.318,0.356c0.495,1.178,1.357,2.207,2.539,2.894
	c2.877,1.657,6.594,0.661,8.251-2.214l2.161-3.744c-0.493,2.094,0.417,4.354,2.377,5.484c2.396,1.387,5.457,0.561,6.845-1.834
	c1.381-2.393,0.562-5.459-1.838-6.844c-1.956-1.128-4.368-0.781-5.932,0.688l1.991-3.448c0.678-1.177,1.048-2.224,0.959-3.671
	c1.465-0.866,2.677-2.002,3.607-3.313c0.668,1.762,0.848,3.689,0.51,5.543c0.338,0.146,0.674,0.316,1,0.502
	c4.445,2.565,5.969,8.242,3.402,12.682c-2.564,4.437-8.245,5.957-12.681,3.396C83.333,117.898,83.023,117.695,82.726,117.471
	 M86.249,90.336c-0.467,1.732-1.885,3.031-3.641,3.324c-2.407-0.321-4.814,0.838-6.038,2.956l-4.432,7.674
	c-1.301-0.644-2.735-1.06-4.251-1.183l4.981-8.629C75.617,89.725,81.523,88.07,86.249,90.336"/>
<path fill="#82BC00" d="M91.947,87.361c0.761,4.167-1.113,8.568-4.982,10.806c-3.099,1.785-6.751,1.773-9.75,0.294l0.591-1.02
	c0.627-1.09,1.646-1.821,2.781-2.124c0.152-0.041,0.312-0.077,0.469-0.101c1.265,0.164,2.589-0.07,3.771-0.75
	c2.875-1.662,3.871-5.379,2.214-8.252l-2.16-3.74c1.562,1.476,3.97,1.813,5.931,0.684c2.4-1.381,3.222-4.442,1.838-6.843
	c-1.387-2.394-4.449-3.214-6.846-1.832c-1.96,1.129-2.867,3.389-2.376,5.484l-1.991-3.451c-0.677-1.177-1.404-2.022-2.698-2.665
	c-0.013-1.703-0.398-3.318-1.065-4.782c1.861,0.304,3.619,1.107,5.059,2.33c0.3-0.216,0.609-0.427,0.938-0.614
	c4.438-2.565,10.117-1.044,12.682,3.394c2.565,4.443,1.043,10.115-3.401,12.678C92.621,87.051,92.286,87.215,91.947,87.361
	 M70.2,70.737c1.271,1.271,1.686,3.15,1.059,4.818c-1.475,1.925-1.679,4.583-0.455,6.707l4.433,7.676
	c-1.211,0.8-2.284,1.838-3.15,3.086l-4.985-8.625C64.355,79.641,65.878,73.699,70.2,70.737"/>
</svg>
