<?xml version="1.0" encoding="utf-8"?>
<!-- Generator: Adobe Illustrator 16.0.0, SVG Export Plug-In . SVG Version: 6.00 Build 0)  -->
<!DOCTYPE svg PUBLIC "-//W3C//DTD SVG 1.1//EN" "http://www.w3.org/Graphics/SVG/1.1/DTD/svg11.dtd">
<svg version="1.1" id="Layer_1" xmlns="http://www.w3.org/2000/svg" xmlns:xlink="http://www.w3.org/1999/xlink" x="0px" y="0px"
	 width="595.28px" height="80px" viewBox="0 0 595.28 80" enable-background="new 0 0 595.28 80" xml:space="preserve">
<path fill="#FFFFFF" d="M32.115,4.974c15.651,0,28.056,11.905,28.056,27.224c0,15.318-12.405,27.223-28.056,27.223
	c-15.651,0-28.056-11.904-28.056-27.223C4.059,16.879,16.464,4.974,32.115,4.974 M50.014,32.198
	c0-10.157-8.491-18.066-17.899-18.066c-9.408,0-17.899,7.909-17.899,18.066c0,10.156,8.491,18.065,17.899,18.065
	C41.523,50.264,50.014,42.354,50.014,32.198"/>
<path fill="#FFFFFF" d="M65.245,21.708h9.574v36.631h-9.574V21.708z M65.412,13.549c0-2.664,2.165-4.829,4.746-4.829
	c2.664,0,4.828,2.165,4.828,4.829s-2.164,4.746-4.828,4.746C67.577,18.295,65.412,16.213,65.412,13.549"/>
<rect x="80.479" y="6.056" fill="#FFFFFF" width="9.574" height="52.282"/>
<path fill="#82BC00" d="M98.292,6.057h22.062c17.649,0,28.056,12.321,28.056,26.142c0,13.819-10.823,26.141-28.056,26.141H98.292
	V6.057z M120.354,49.181c11.239,0,18.399-7.742,18.399-16.982c0-9.241-7.16-16.983-18.399-16.983h-12.405v33.966H120.354z"/>
<path fill="#82BC00" d="M153.484,21.708h9.574v36.631h-9.574V21.708z M153.651,13.549c0-2.664,2.165-4.829,4.745-4.829
	c2.664,0,4.829,2.165,4.829,4.829s-2.165,4.746-4.829,4.746C155.816,18.295,153.651,16.213,153.651,13.549"/>
<polygon fill="#82BC00" points="163.972,21.708 175.211,21.708 184.285,41.272 194.109,21.708 204.515,21.708 184.285,60.587 "/>
<path fill="#82BC00" d="M236.897,54.177c-3.663,3.08-8.741,4.911-14.068,4.911c-11.489,0-20.73-8.325-20.73-19.064
	s8.409-19.064,19.897-19.064s18.98,8.325,18.98,19.064v2.747h-29.304c1.332,4.829,5.994,8.242,11.156,8.242
	c3.162,0,5.91-0.999,8.407-3.58L236.897,54.177z M230.903,34.945c-1.415-3.33-4.579-5.911-8.907-5.911
	c-4.246,0-7.742,2.331-9.49,5.911H230.903z"/>
<path fill="#82BC00" d="M244.721,37.775c0-8.741,6.66-16.067,17.482-16.067v8.575c-4.662,0-7.992,2.83-7.992,8.658v19.397h-9.49
	V37.775z"/>
<path fill="#82BC00" d="M266.364,46.767c3.08,2.082,7.159,4.246,10.988,4.246c1.998,0,5.578-0.5,5.578-3.247
	c0-5.661-18.731-4.412-18.731-15.984c0-7.409,6.993-10.739,13.487-10.739c4.911,0,10.157,2.164,14.07,4.913l-4.246,6.992
	c-2.748-1.499-6.661-3.83-9.908-3.83c-1.498,0-3.746,0.333-3.746,2.248c0,5.827,18.732,3.663,18.732,16.317
	c0,7.909-8.159,11.322-15.069,11.322c-5.495,0-10.573-2.164-15.151-5.078L266.364,46.767z"/>
<path fill="#82BC00" d="M296.249,21.708h9.574v36.631h-9.574V21.708z M296.416,13.549c0-2.664,2.165-4.829,4.745-4.829
	c2.664,0,4.829,2.165,4.829,4.829s-2.165,4.746-4.829,4.746C298.581,18.295,296.416,16.213,296.416,13.549"/>
<path fill="#82BC00" d="M318.06,30.116h-8.242v-8.408h8.242V10.303h9.574v11.405h11.156v8.408h-11.073v10.989
	c0,5.828,3.164,8.741,7.826,8.741v8.492c-10.906,0-17.483-7.326-17.483-16.067V30.116z"/>
<path fill="#82BC00" d="M349.692,60.171c0,5.078,4.08,7.742,8.242,7.742c4.246,0,7.909-3.414,7.909-7.659v-2.747
	c-2.331,0.998-4.995,1.498-7.909,1.498c-10.323,0-17.398-7.326-17.398-15.818V21.708h9.572v20.063c0,5.828,3.247,9.158,7.826,9.158
	c4.662,0,7.909-3.33,7.909-9.158V21.708h9.658v38.463c0,8.491-7.161,15.817-17.484,15.817c-10.406,0-17.148-7.076-17.148-15.817
	H349.692z"/>
<path fill="#FFFFFF" d="M411.662,27.785h23.311v20.813c-2.581,2.831-10.407,10.823-23.311,10.823
	c-15.652,0-28.057-11.904-28.057-27.223s12.072-27.224,27.723-27.224c8.325,0,16.817,3.413,22.646,10.739l-7.993,5.994
	c-3.33-4.828-8.741-7.576-14.652-7.576c-9.406,0-17.565,7.909-17.565,18.066c0,10.156,8.491,18.065,17.899,18.065
	c4.994,0,10.489-1.75,13.736-4.995l-0.084-8.492h-13.652V27.785z"/>
<rect x="441.461" y="6.057" fill="#FFFFFF" width="9.574" height="52.282"/>
<path fill="#FFFFFF" d="M475.012,20.959c11.488,0,20.646,8.325,20.646,19.064s-9.157,19.064-20.646,19.064
	c-11.49,0-20.729-8.325-20.729-19.064S463.521,20.959,475.012,20.959 M475.012,51.013c5.993,0,11.488-4.828,11.488-10.989
	s-5.495-10.989-11.488-10.989c-6.078,0-11.49,4.828-11.49,10.989S468.934,51.013,475.012,51.013"/>
<path fill="#FFFFFF" d="M498.818,6.057h9.74v15.651h9.823c11.656,0,18.816,8.741,18.816,18.981s-7.41,18.481-19.066,18.481
	c-11.655,0-19.23-7.992-19.23-18.231L498.818,6.057z M508.559,40.689c0,4.662,2.83,9.491,9.656,9.491
	c6.827,0,9.324-5.079,9.324-9.741s-3.08-9.74-9.906-9.74h-9.074V40.689z"/>
<path fill="#FFFFFF" d="M558.175,58.339c-11.656,0-18.816-8.158-18.816-18.398s7.41-18.232,19.066-18.232
	c11.653,0,19.313,7.992,19.229,18.232v18.398H558.175z M567.997,49.348V40.19c0.083-4.662-2.83-9.491-9.656-9.491
	s-9.324,4.829-9.324,9.491s3.08,9.157,9.907,9.157H567.997z"/>
<rect x="581.648" y="6.057" fill="#FFFFFF" width="9.573" height="52.282"/>
</svg>
