<?xml version="1.0" encoding="utf-8"?>
<!-- Generator: Adobe Illustrator 16.0.0, SVG Export Plug-In . SVG Version: 6.00 Build 0)  -->
<!DOCTYPE svg PUBLIC "-//W3C//DTD SVG 1.1//EN" "http://www.w3.org/Graphics/SVG/1.1/DTD/svg11.dtd">
<svg version="1.1" id="Layer_1" xmlns="http://www.w3.org/2000/svg" xmlns:xlink="http://www.w3.org/1999/xlink" x="0px" y="0px"
	 width="597px" height="83px" viewBox="0 0 597 83" enable-background="new 0 0 597 83" xml:space="preserve">
<path fill="#55565A" d="M32.981,5.309c15.651,0,28.056,11.904,28.056,27.224c0,15.318-12.405,27.223-28.056,27.223
	c-15.651,0-28.056-11.904-28.056-27.223C4.925,17.213,17.33,5.309,32.981,5.309 M50.88,32.532c0-10.157-8.491-18.065-17.899-18.065
	c-9.408,0-17.899,7.908-17.899,18.065c0,10.156,8.491,18.065,17.899,18.065C42.389,50.598,50.88,42.688,50.88,32.532"/>
<path fill="#55565A" d="M66.111,22.042h9.574v36.631h-9.574V22.042z M66.278,13.883c0-2.664,2.165-4.828,4.746-4.828
	c2.664,0,4.828,2.164,4.828,4.828s-2.164,4.746-4.828,4.746C68.443,18.629,66.278,16.547,66.278,13.883"/>
<rect x="81.345" y="6.391" fill="#55565A" width="9.574" height="52.281"/>
<path fill="#82BC00" d="M99.159,6.391h22.062c17.649,0,28.056,12.321,28.056,26.142c0,13.819-10.823,26.141-28.056,26.141H99.159
	V6.391z M121.221,49.515c11.239,0,18.399-7.742,18.399-16.982c0-9.241-7.16-16.983-18.399-16.983h-12.405v33.966H121.221z"/>
<path fill="#82BC00" d="M154.35,22.042h9.574v36.631h-9.574V22.042z M154.517,13.883c0-2.664,2.165-4.828,4.745-4.828
	c2.664,0,4.829,2.164,4.829,4.828s-2.165,4.746-4.829,4.746C156.682,18.629,154.517,16.547,154.517,13.883"/>
<polygon fill="#82BC00" points="164.838,22.042 176.077,22.042 185.151,41.606 194.976,22.042 205.381,22.042 185.151,60.921 "/>
<path fill="#82BC00" d="M237.764,54.511c-3.663,3.08-8.741,4.911-14.068,4.911c-11.489,0-20.73-8.325-20.73-19.064
	s8.409-19.064,19.897-19.064s18.98,8.325,18.98,19.064v2.747h-29.304c1.332,4.829,5.994,8.242,11.156,8.242
	c3.162,0,5.91-0.999,8.407-3.58L237.764,54.511z M231.77,35.279c-1.415-3.33-4.579-5.911-8.907-5.911
	c-4.246,0-7.742,2.331-9.49,5.911H231.77z"/>
<path fill="#82BC00" d="M245.587,38.109c0-8.741,6.66-16.067,17.482-16.067v8.575c-4.662,0-7.992,2.83-7.992,8.658v19.397h-9.49
	V38.109z"/>
<path fill="#82BC00" d="M267.23,47.101c3.08,2.082,7.159,4.246,10.988,4.246c1.998,0,5.578-0.5,5.578-3.247
	c0-5.661-18.731-4.412-18.731-15.984c0-7.409,6.993-10.739,13.487-10.739c4.911,0,10.157,2.164,14.07,4.913l-4.246,6.992
	c-2.748-1.499-6.661-3.83-9.908-3.83c-1.498,0-3.746,0.333-3.746,2.248c0,5.827,18.732,3.663,18.732,16.317
	c0,7.909-8.159,11.322-15.069,11.322c-5.495,0-10.573-2.164-15.151-5.078L267.23,47.101z"/>
<path fill="#82BC00" d="M297.115,22.042h9.574v36.631h-9.574V22.042z M297.282,13.883c0-2.664,2.165-4.828,4.745-4.828
	c2.664,0,4.829,2.164,4.829,4.828s-2.165,4.746-4.829,4.746C299.447,18.629,297.282,16.547,297.282,13.883"/>
<path fill="#82BC00" d="M318.926,30.45h-8.242v-8.408h8.242V10.637h9.574v11.405h11.156v8.408h-11.073v10.989
	c0,5.828,3.164,8.741,7.826,8.741v8.492c-10.906,0-17.483-7.326-17.483-16.067V30.45z"/>
<path fill="#82BC00" d="M350.559,60.505c0,5.078,4.08,7.742,8.242,7.742c4.246,0,7.909-3.414,7.909-7.659v-2.747
	c-2.331,0.998-4.995,1.498-7.909,1.498c-10.323,0-17.398-7.326-17.398-15.818V22.042h9.572v20.063c0,5.828,3.247,9.158,7.826,9.158
	c4.662,0,7.909-3.33,7.909-9.158V22.042h9.658v38.463c0,8.491-7.161,15.817-17.484,15.817c-10.406,0-17.148-7.076-17.148-15.817
	H350.559z"/>
<path fill="#55565A" d="M411.056,28.118h23.312v20.813c-2.582,2.831-10.408,10.823-23.312,10.823
	C395.404,59.754,383,47.85,383,32.531s12.071-27.224,27.723-27.224c8.324,0,16.816,3.413,22.645,10.739l-7.992,5.994
	c-3.33-4.828-8.742-7.576-14.652-7.576c-9.407,0-17.566,7.909-17.566,18.066c0,10.156,8.492,18.065,17.899,18.065
	c4.995,0,10.489-1.75,13.737-4.995l-0.084-8.492h-13.653V28.118z"/>
<rect x="440.855" y="6.39" fill="#55565A" width="9.574" height="52.282"/>
<path fill="#55565A" d="M474.405,21.292c11.489,0,20.646,8.325,20.646,19.064s-9.156,19.064-20.646,19.064
	s-20.729-8.325-20.729-19.064S462.916,21.292,474.405,21.292 M474.405,51.346c5.993,0,11.489-4.828,11.489-10.989
	s-5.496-10.989-11.489-10.989c-6.077,0-11.489,4.828-11.489,10.989S468.328,51.346,474.405,51.346"/>
<path fill="#55565A" d="M498.213,6.39h9.74v15.651h9.822c11.656,0,18.816,8.741,18.816,18.981s-7.41,18.481-19.066,18.481
	c-11.654,0-19.23-7.992-19.23-18.231L498.213,6.39z M507.953,41.022c0,4.662,2.83,9.491,9.656,9.491s9.324-5.079,9.324-9.741
	s-3.08-9.74-9.906-9.74h-9.074V41.022z"/>
<path fill="#55565A" d="M557.568,58.672c-11.656,0-18.816-8.158-18.816-18.398s7.41-18.232,19.066-18.232
	c11.654,0,19.314,7.992,19.23,18.232v18.398H557.568z M567.391,49.681v-9.157c0.084-4.662-2.83-9.491-9.656-9.491
	s-9.324,4.829-9.324,9.491s3.08,9.157,9.908,9.157H567.391z"/>
<rect x="581.043" y="6.39" fill="#55565A" width="9.572" height="52.282"/>
</svg>
