<?xml version="1.0" encoding="utf-8"?>
<!-- Generator: Adobe Illustrator 16.0.0, SVG Export Plug-In . SVG Version: 6.00 Build 0)  -->
<!DOCTYPE svg PUBLIC "-//W3C//DTD SVG 1.1//EN" "http://www.w3.org/Graphics/SVG/1.1/DTD/svg11.dtd">
<svg version="1.1" id="Layer_1" xmlns="http://www.w3.org/2000/svg" xmlns:xlink="http://www.w3.org/1999/xlink" x="0px" y="0px"
	 width="685px" height="117px" viewBox="0 0 685 117" enable-background="new 0 0 685 117" xml:space="preserve">
<path fill="#55565A" d="M76.107,54.612C66.049,38.716,55.63,22.993,45.396,7.193c-0.002-0.001-0.002-0.003-0.004-0.004
	C35.161,22.987,24.579,38.607,14.675,54.612c-11.06,17.874-4.165,42.036,14.61,51.4c17.627,8.792,39.688,1.35,48.466-16.25
	C83.282,78.675,82.648,65.143,76.107,54.612"/>
<path fill="#FFFFFF" d="M52.843,49.759c3.048,1.085,5.242,4.002,5.242,7.416c0,2.723-1.402,5.135-3.524,6.551l-0.453-0.781
	c-0.479-0.827-0.571-1.781-0.339-2.644c0.032-0.121,0.067-0.234,0.11-0.349c0.591-0.773,0.944-1.738,0.944-2.778
	c0-2.534-2.077-4.611-4.612-4.611h-3.295c1.573-0.473,2.715-1.934,2.715-3.658c0-2.113-1.711-3.824-3.82-3.824
	c-2.113,0-3.826,1.711-3.826,3.824c0,1.725,1.148,3.185,2.721,3.658h-3.042c-1.038,0-1.872,0.157-2.792,0.768
	c-1.13-0.643-2.346-1.004-3.566-1.12c0.907-1.112,2.109-1.97,3.472-2.452c-0.036-0.281-0.053-0.567-0.053-0.854
	c0-3.913,3.172-7.083,7.087-7.083c3.91,0,7.081,3.17,7.081,7.083C52.893,49.191,52.875,49.478,52.843,49.759 M33.559,57.781
	c1.322-0.352,2.726,0.091,3.583,1.14c0.71,1.711,2.391,2.859,4.263,2.859h6.765c0.067,1.107,0.343,2.215,0.84,3.26h-7.605
	C37.214,65.04,33.868,61.769,33.559,57.781"/>
<path fill="#FFFFFF" d="M29.417,55.155c2.466-2.096,6.09-2.537,9.044-0.831c2.364,1.362,3.752,3.783,3.913,6.325h-0.897
	c-0.955,0-1.827-0.393-2.461-1.028c-0.089-0.084-0.169-0.174-0.245-0.267c-0.375-0.9-1.037-1.684-1.941-2.208
	c-2.188-1.263-5.025-0.504-6.294,1.689l-1.647,2.855c0.375-1.599-0.314-3.318-1.812-4.187c-1.83-1.053-4.167-0.427-5.222,1.403
	c-1.055,1.827-0.43,4.164,1.397,5.222c1.497,0.862,3.334,0.599,4.53-0.527l-1.519,2.635c-0.518,0.899-0.804,1.698-0.731,2.797
	c-1.122,0.66-2.048,1.532-2.752,2.533c-0.515-1.346-0.653-2.815-0.393-4.237c-0.26-0.109-0.515-0.235-0.764-0.378
	c-3.387-1.957-4.549-6.29-2.592-9.675c1.957-3.39,6.287-4.55,9.678-2.594C28.956,54.828,29.193,54.985,29.417,55.155 M26.727,75.864
	c0.358-1.322,1.438-2.318,2.779-2.538c1.836,0.241,3.672-0.639,4.607-2.26l3.381-5.851c0.992,0.49,2.092,0.808,3.244,0.902
	l-3.796,6.58C34.84,76.327,30.337,77.587,26.727,75.864"/>
<path fill="#FFFFFF" d="M22.38,78.131c-0.581-3.184,0.848-6.539,3.802-8.246c2.365-1.362,5.157-1.354,7.441-0.222l-0.448,0.776
	c-0.483,0.831-1.26,1.39-2.123,1.622c-0.121,0.031-0.237,0.055-0.358,0.076c-0.964-0.125-1.979,0.054-2.881,0.571
	c-2.189,1.267-2.954,4.104-1.685,6.295l1.648,2.857c-1.197-1.125-3.034-1.389-4.528-0.522c-1.829,1.055-2.455,3.392-1.4,5.217
	c1.055,1.832,3.396,2.458,5.223,1.403c1.497-0.866,2.186-2.587,1.81-4.186l1.523,2.632c0.514,0.897,1.067,1.546,2.055,2.038
	c0.015,1.3,0.304,2.532,0.819,3.644c-1.422-0.228-2.763-0.843-3.862-1.778c-0.228,0.17-0.464,0.326-0.713,0.474
	c-3.392,1.956-7.723,0.796-9.679-2.596c-1.958-3.385-0.795-7.719,2.591-9.674C21.866,78.371,22.12,78.244,22.38,78.131
	 M38.974,90.814c-0.964-0.971-1.287-2.404-0.804-3.673c1.126-1.47,1.279-3.502,0.344-5.12l-3.381-5.854
	c0.924-0.613,1.746-1.404,2.408-2.359l3.798,6.583C43.438,84.025,42.277,88.553,38.974,90.814"/>
<path fill="#FFFFFF" d="M38.769,95.714c-3.046-1.085-5.241-4.006-5.241-7.416c0-2.729,1.402-5.14,3.521-6.553l0.452,0.779
	c0.479,0.83,0.575,1.78,0.344,2.647c-0.032,0.116-0.072,0.234-0.112,0.343c-0.596,0.781-0.944,1.743-0.944,2.784
	c0,2.534,2.078,4.611,4.605,4.611h3.304c-1.573,0.473-2.721,1.929-2.721,3.657c0,2.113,1.709,3.823,3.823,3.823
	c2.109,0,3.821-1.71,3.825-3.823c0-1.728-1.148-3.184-2.719-3.657h3.041c1.037,0,1.874-0.158,2.789-0.769
	c1.133,0.639,2.351,1.005,3.57,1.116c-0.912,1.117-2.113,1.969-3.472,2.457c0.036,0.28,0.053,0.563,0.053,0.853
	c0,3.914-3.172,7.085-7.087,7.085c-3.915,0-7.087-3.171-7.087-7.085C38.714,96.277,38.732,95.994,38.769,95.714 M58.053,87.686
	c-1.327,0.354-2.725-0.083-3.587-1.133c-0.711-1.715-2.391-2.865-4.262-2.865h-6.76c-0.072-1.102-0.345-2.209-0.841-3.259h7.602
	C54.399,80.429,57.746,83.702,58.053,87.686"/>
<path fill="#FFFFFF" d="M62.192,90.316c-2.467,2.096-6.091,2.54-9.043,0.833c-2.365-1.364-3.75-3.789-3.915-6.33h0.898
	c0.96,0,1.83,0.393,2.465,1.026c0.085,0.084,0.165,0.178,0.243,0.272c0.378,0.899,1.036,1.685,1.938,2.208
	c2.195,1.265,5.032,0.504,6.296-1.689l1.649-2.857c-0.376,1.598,0.318,3.322,1.813,4.185c1.828,1.058,4.165,0.428,5.224-1.399
	c1.054-1.826,0.428-4.166-1.403-5.222c-1.493-0.861-3.333-0.596-4.526,0.524l1.52-2.631c0.517-0.898,0.8-1.697,0.732-2.801
	c1.118-0.661,2.042-1.528,2.752-2.528c0.51,1.344,0.647,2.815,0.389,4.23c0.258,0.111,0.514,0.241,0.763,0.383
	c3.392,1.958,4.555,6.29,2.596,9.678c-1.957,3.385-6.292,4.545-9.676,2.591C62.656,90.643,62.419,90.488,62.192,90.316
	 M64.881,69.61c-0.356,1.322-1.438,2.313-2.778,2.537c-1.837-0.245-3.674,0.64-4.607,2.256l-3.382,5.856
	c-0.993-0.491-2.087-0.809-3.244-0.902l3.802-6.585C56.768,69.144,61.275,67.881,64.881,69.61"/>
<path fill="#82BC00" d="M69.229,67.34c0.581,3.18-0.85,6.539-3.802,8.246c-2.365,1.362-5.152,1.353-7.44,0.224l0.451-0.778
	c0.479-0.832,1.256-1.39,2.123-1.621c0.116-0.031,0.238-0.059,0.358-0.077c0.965,0.125,1.976-0.054,2.877-0.572
	c2.194-1.269,2.954-4.104,1.689-6.297l-1.648-2.854c1.192,1.126,3.029,1.384,4.526,0.522c1.832-1.054,2.458-3.39,1.402-5.222
	c-1.058-1.827-3.395-2.453-5.224-1.398c-1.496,0.862-2.188,2.586-1.813,4.185l-1.52-2.634c-0.516-0.898-1.071-1.543-2.059-2.034
	c-0.009-1.299-0.304-2.532-0.813-3.649c1.42,0.232,2.762,0.845,3.86,1.778c0.229-0.165,0.465-0.326,0.715-0.469
	c3.387-1.958,7.721-0.797,9.677,2.59c1.958,3.39,0.796,7.718-2.595,9.675C69.743,67.103,69.488,67.228,69.229,67.34 M52.634,54.654
	c0.97,0.97,1.287,2.404,0.808,3.676c-1.125,1.469-1.281,3.498-0.347,5.118l3.382,5.857c-0.924,0.61-1.743,1.403-2.404,2.355
	l-3.805-6.582C48.174,61.449,49.335,56.915,52.634,54.654"/>
<path fill="#55565A" d="M117.738,31.308c15.651,0,28.056,11.905,28.056,27.224c0,15.318-12.405,27.223-28.056,27.223
	c-15.651,0-28.056-11.904-28.056-27.223C89.682,43.213,102.087,31.308,117.738,31.308 M135.637,58.532
	c0-10.157-8.491-18.066-17.899-18.066c-9.408,0-17.899,7.909-17.899,18.066c0,10.156,8.491,18.065,17.899,18.065
	C127.146,76.598,135.637,68.688,135.637,58.532"/>
<path fill="#55565A" d="M150.868,48.042h9.574v36.631h-9.574V48.042z M151.035,39.883c0-2.664,2.165-4.829,4.746-4.829
	c2.664,0,4.828,2.165,4.828,4.829s-2.164,4.746-4.828,4.746C153.2,44.629,151.035,42.547,151.035,39.883"/>
<rect x="166.102" y="32.39" fill="#55565A" width="9.574" height="52.282"/>
<path fill="#82BC00" d="M183.916,32.391h22.062c17.649,0,28.056,12.321,28.056,26.142c0,13.819-10.823,26.141-28.056,26.141h-22.062
	V32.391z M205.978,75.515c11.239,0,18.399-7.742,18.399-16.982c0-9.241-7.16-16.983-18.399-16.983h-12.405v33.966H205.978z"/>
<path fill="#82BC00" d="M239.107,48.042h9.574v36.631h-9.574V48.042z M239.274,39.883c0-2.664,2.165-4.829,4.745-4.829
	c2.664,0,4.829,2.165,4.829,4.829s-2.165,4.746-4.829,4.746C241.439,44.629,239.274,42.547,239.274,39.883"/>
<polygon fill="#82BC00" points="249.596,48.042 260.834,48.042 269.908,67.606 279.732,48.042 290.138,48.042 269.908,86.921 "/>
<path fill="#82BC00" d="M322.521,80.511c-3.663,3.08-8.741,4.911-14.068,4.911c-11.489,0-20.73-8.325-20.73-19.064
	s8.409-19.064,19.897-19.064s18.98,8.325,18.98,19.064v2.747h-29.304c1.332,4.829,5.994,8.242,11.156,8.242
	c3.162,0,5.91-0.999,8.407-3.58L322.521,80.511z M316.526,61.279c-1.415-3.33-4.579-5.911-8.907-5.911
	c-4.246,0-7.742,2.331-9.49,5.911H316.526z"/>
<path fill="#82BC00" d="M330.344,64.109c0-8.741,6.66-16.067,17.482-16.067v8.575c-4.662,0-7.992,2.83-7.992,8.658v19.397h-9.49
	V64.109z"/>
<path fill="#82BC00" d="M351.987,73.101c3.08,2.082,7.159,4.246,10.988,4.246c1.998,0,5.578-0.5,5.578-3.247
	c0-5.661-18.731-4.412-18.731-15.984c0-7.409,6.993-10.739,13.487-10.739c4.911,0,10.157,2.164,14.07,4.913l-4.246,6.992
	c-2.748-1.499-6.661-3.83-9.908-3.83c-1.498,0-3.746,0.333-3.746,2.248c0,5.827,18.732,3.663,18.732,16.317
	c0,7.909-8.159,11.322-15.069,11.322c-5.495,0-10.573-2.164-15.151-5.078L351.987,73.101z"/>
<path fill="#82BC00" d="M381.872,48.042h9.574v36.631h-9.574V48.042z M382.039,39.883c0-2.664,2.165-4.829,4.745-4.829
	c2.664,0,4.829,2.165,4.829,4.829s-2.165,4.746-4.829,4.746C384.204,44.629,382.039,42.547,382.039,39.883"/>
<path fill="#82BC00" d="M403.683,56.45h-8.242v-8.408h8.242V36.637h9.574v11.405h11.156v8.408H413.34v10.989
	c0,5.828,3.164,8.741,7.826,8.741v8.492c-10.906,0-17.483-7.326-17.483-16.067V56.45z"/>
<path fill="#82BC00" d="M435.315,86.505c0,5.078,4.08,7.742,8.242,7.742c4.246,0,7.909-3.414,7.909-7.659v-2.747
	c-2.331,0.998-4.995,1.498-7.909,1.498c-10.323,0-17.398-7.326-17.398-15.818V48.042h9.572v20.063c0,5.828,3.247,9.158,7.826,9.158
	c4.662,0,7.909-3.33,7.909-9.158V48.042h9.658v38.463c0,8.491-7.161,15.817-17.484,15.817c-10.406,0-17.148-7.076-17.148-15.817
	H435.315z"/>
<path fill="#55565A" d="M492.721,54.119h23.312v20.813c-2.582,2.831-10.408,10.823-23.312,10.823
	c-15.651,0-28.056-11.904-28.056-27.223s12.071-27.224,27.723-27.224c8.324,0,16.816,3.413,22.645,10.739l-7.992,5.994
	c-3.33-4.828-8.742-7.576-14.652-7.576c-9.407,0-17.566,7.909-17.566,18.066c0,10.156,8.492,18.065,17.899,18.065
	c4.995,0,10.489-1.75,13.737-4.995l-0.084-8.492h-13.653V54.119z"/>
<rect x="522.521" y="32.39" fill="#55565A" width="9.574" height="52.282"/>
<path fill="#55565A" d="M556.07,47.292c11.489,0,20.646,8.325,20.646,19.064s-9.156,19.064-20.646,19.064
	s-20.729-8.325-20.729-19.064S544.581,47.292,556.07,47.292 M556.07,77.346c5.993,0,11.489-4.828,11.489-10.989
	s-5.496-10.989-11.489-10.989c-6.077,0-11.489,4.828-11.489,10.989S549.993,77.346,556.07,77.346"/>
<path fill="#55565A" d="M579.878,32.39h9.74v15.651h9.822c11.656,0,18.816,8.741,18.816,18.981s-7.41,18.481-19.066,18.481
	c-11.654,0-19.23-7.992-19.23-18.231L579.878,32.39z M589.618,67.023c0,4.662,2.83,9.491,9.656,9.491s9.324-5.079,9.324-9.741
	s-3.08-9.74-9.906-9.74h-9.074V67.023z"/>
<path fill="#55565A" d="M639.233,84.672c-11.656,0-18.816-8.158-18.816-18.398s7.41-18.232,19.066-18.232
	c11.654,0,19.314,7.992,19.23,18.232v18.398H639.233z M649.056,75.681v-9.157c0.084-4.662-2.83-9.491-9.656-9.491
	s-9.324,4.829-9.324,9.491s3.08,9.157,9.908,9.157H649.056z"/>
<rect x="662.708" y="32.39" fill="#55565A" width="9.572" height="52.282"/>
</svg>
