<?xml version="1.0" encoding="utf-8"?>
<!-- Generator: Adobe Illustrator 16.0.0, SVG Export Plug-In . SVG Version: 6.00 Build 0)  -->
<!DOCTYPE svg PUBLIC "-//W3C//DTD SVG 1.1//EN" "http://www.w3.org/Graphics/SVG/1.1/DTD/svg11.dtd">
<svg version="1.1" id="Layer_1" xmlns="http://www.w3.org/2000/svg" xmlns:xlink="http://www.w3.org/1999/xlink" x="0px" y="0px"
	 width="103px" height="145px" viewBox="0 0 103 145" enable-background="new 0 0 103 145" xml:space="preserve">
<path fill="#55565A" d="M91.96,66.683C78.78,45.851,65.126,25.247,51.716,4.542c-0.003-0.001-0.003-0.004-0.005-0.005
	C38.303,25.239,24.436,45.708,11.458,66.683C-3.036,90.105,6,121.768,30.604,134.039c23.1,11.521,52.009,1.769,63.512-21.295
	C101.362,98.215,100.532,80.481,91.96,66.683"/>
<path fill="#FFFFFF" d="M61.474,60.322c3.995,1.421,6.869,5.244,6.869,9.717c0,3.569-1.837,6.73-4.618,8.585l-0.593-1.023
	c-0.627-1.083-0.748-2.334-0.444-3.465c0.042-0.158,0.088-0.307,0.145-0.457c0.774-1.013,1.237-2.277,1.237-3.64
	c0-3.32-2.722-6.042-6.044-6.042h-4.318c2.062-0.62,3.559-2.534,3.559-4.794c0-2.769-2.242-5.011-5.006-5.011
	c-2.769,0-5.013,2.242-5.013,5.011c0,2.26,1.505,4.174,3.565,4.794h-3.986c-1.359,0-2.452,0.206-3.659,1.006
	c-1.481-0.843-3.074-1.316-4.674-1.468c1.189-1.458,2.764-2.581,4.55-3.213c-0.047-0.369-0.07-0.744-0.07-1.119
	c0-5.128,4.157-9.282,9.287-9.282c5.124,0,9.279,4.154,9.279,9.282C61.539,59.579,61.516,59.954,61.474,60.322 M36.204,70.834
	c1.733-0.461,3.572,0.119,4.696,1.493c0.931,2.243,3.133,3.747,5.586,3.747h8.865c0.088,1.451,0.45,2.902,1.101,4.272h-9.966
	C40.994,80.347,36.608,76.061,36.204,70.834"/>
<path fill="#FFFFFF" d="M30.775,67.393c3.232-2.746,7.981-3.324,11.852-1.088c3.097,1.785,4.917,4.957,5.127,8.288h-1.176
	c-1.252,0-2.394-0.515-3.226-1.347c-0.116-0.11-0.221-0.228-0.321-0.35c-0.492-1.179-1.359-2.207-2.543-2.893
	c-2.867-1.656-6.586-0.661-8.249,2.213l-2.159,3.741c0.491-2.095-0.412-4.348-2.374-5.486c-2.398-1.38-5.461-0.56-6.843,1.838
	c-1.382,2.394-0.563,5.457,1.831,6.843c1.962,1.129,4.37,0.785,5.937-0.69l-1.99,3.453c-0.678,1.178-1.053,2.226-0.959,3.666
	c-1.47,0.864-2.683,2.007-3.607,3.319c-0.674-1.764-0.856-3.689-0.515-5.553c-0.341-0.144-0.674-0.308-1.001-0.496
	c-4.439-2.563-5.961-8.242-3.397-12.679c2.564-4.442,8.239-5.963,12.682-3.4C30.171,66.965,30.482,67.171,30.775,67.393
	 M27.25,94.531c0.469-1.732,1.885-3.038,3.642-3.326c2.407,0.316,4.812-0.837,6.038-2.961l4.431-7.668
	c1.3,0.643,2.741,1.059,4.251,1.183l-4.975,8.622C37.882,95.139,31.981,96.79,27.25,94.531"/>
<path fill="#FFFFFF" d="M21.554,97.503c-0.761-4.172,1.111-8.569,4.982-10.806c3.099-1.785,6.758-1.773,9.752-0.291l-0.587,1.018
	c-0.633,1.088-1.652,1.821-2.782,2.125c-0.158,0.041-0.311,0.071-0.469,0.1c-1.264-0.164-2.594,0.07-3.776,0.748
	c-2.869,1.66-3.871,5.379-2.208,8.25l2.16,3.744c-1.568-1.475-3.975-1.82-5.934-0.685c-2.396,1.382-3.216,4.444-1.835,6.837
	c1.383,2.4,4.451,3.221,6.845,1.839c1.962-1.135,2.864-3.391,2.372-5.485l1.996,3.449c0.674,1.176,1.399,2.025,2.693,2.67
	c0.019,1.703,0.398,3.317,1.073,4.775c-1.863-0.299-3.62-1.105-5.061-2.33c-0.298,0.223-0.608,0.428-0.935,0.621
	c-4.445,2.563-10.12,1.043-12.684-3.402c-2.565-4.436-1.042-10.115,3.396-12.678C20.88,97.816,21.213,97.65,21.554,97.503
	 M43.3,114.123c-1.263-1.271-1.686-3.15-1.053-4.813c1.475-1.927,1.676-4.59,0.45-6.709l-4.431-7.672
	c1.211-0.803,2.288-1.84,3.156-3.092l4.977,8.627C49.15,105.227,47.628,111.159,43.3,114.123"/>
<path fill="#FFFFFF" d="M43.031,120.544c-3.992-1.423-6.868-5.25-6.868-9.718c0-3.576,1.838-6.735,4.614-8.587l0.592,1.021
	c0.627,1.088,0.754,2.333,0.451,3.469c-0.042,0.152-0.094,0.307-0.147,0.449c-0.78,1.023-1.236,2.283-1.236,3.648
	c0,3.32,2.723,6.042,6.035,6.042h4.33c-2.061,0.62-3.566,2.528-3.566,4.793c0,2.769,2.241,5.01,5.01,5.01
	c2.765,0,5.007-2.241,5.013-5.01c0-2.265-1.504-4.173-3.563-4.793h3.985c1.358,0,2.455-0.207,3.654-1.007
	c1.485,0.837,3.08,1.316,4.679,1.463c-1.195,1.464-2.77,2.58-4.55,3.22c0.047,0.367,0.069,0.738,0.069,1.117
	c0,5.129-4.156,9.284-9.287,9.284c-5.129,0-9.287-4.155-9.287-9.284C42.959,121.282,42.983,120.911,43.031,120.544 M68.302,110.023
	c-1.738,0.463-3.571-0.108-4.7-1.485c-0.932-2.248-3.134-3.754-5.586-3.754h-8.859c-0.094-1.444-0.452-2.896-1.102-4.271h9.961
	C63.514,100.514,67.898,104.803,68.302,110.023"/>
<path fill="#FFFFFF" d="M73.726,113.471c-3.233,2.746-7.982,3.328-11.851,1.092c-3.1-1.787-4.914-4.965-5.13-8.295h1.177
	c1.259,0,2.397,0.515,3.23,1.345c0.111,0.11,0.217,0.233,0.318,0.356c0.495,1.178,1.357,2.207,2.539,2.894
	c2.877,1.657,6.594,0.661,8.251-2.214l2.161-3.744c-0.493,2.094,0.417,4.354,2.377,5.484c2.396,1.387,5.457,0.561,6.845-1.834
	c1.381-2.393,0.562-5.459-1.838-6.844c-1.956-1.128-4.368-0.781-5.932,0.688l1.991-3.448c0.678-1.177,1.048-2.224,0.959-3.671
	c1.465-0.866,2.677-2.002,3.607-3.313c0.668,1.762,0.848,3.689,0.51,5.543c0.338,0.146,0.674,0.316,1,0.502
	c4.445,2.565,5.969,8.242,3.402,12.682c-2.564,4.437-8.245,5.957-12.681,3.396C74.333,113.898,74.023,113.695,73.726,113.471
	 M77.249,86.336c-0.467,1.732-1.885,3.031-3.641,3.324c-2.407-0.321-4.814,0.838-6.038,2.956l-4.432,7.674
	c-1.301-0.644-2.735-1.06-4.251-1.183l4.981-8.629C66.617,85.725,72.523,84.07,77.249,86.336"/>
<path fill="#82BC00" d="M82.947,83.361c0.761,4.167-1.113,8.568-4.982,10.806c-3.099,1.785-6.751,1.773-9.75,0.294l0.591-1.02
	c0.627-1.09,1.646-1.821,2.781-2.124c0.152-0.041,0.312-0.077,0.469-0.101c1.265,0.164,2.589-0.07,3.771-0.75
	c2.875-1.662,3.871-5.379,2.214-8.252l-2.16-3.74c1.562,1.476,3.97,1.813,5.931,0.684c2.4-1.381,3.222-4.442,1.838-6.843
	c-1.387-2.394-4.449-3.214-6.846-1.832c-1.96,1.129-2.867,3.389-2.376,5.484l-1.991-3.451c-0.677-1.177-1.404-2.022-2.698-2.665
	c-0.013-1.703-0.398-3.318-1.065-4.782c1.861,0.304,3.619,1.107,5.059,2.33c0.3-0.216,0.609-0.427,0.938-0.614
	c4.438-2.565,10.117-1.044,12.682,3.394c2.565,4.443,1.043,10.115-3.401,12.678C83.621,83.051,83.286,83.215,82.947,83.361
	 M61.2,66.737c1.271,1.271,1.686,3.15,1.059,4.818c-1.475,1.925-1.679,4.583-0.455,6.707l4.433,7.676
	c-1.211,0.8-2.284,1.838-3.15,3.086l-4.985-8.625C55.355,75.641,56.878,69.699,61.2,66.737"/>
</svg>
