<?xml version="1.0" encoding="utf-8"?>
<!-- Generator: Adobe Illustrator 16.0.0, SVG Export Plug-In . SVG Version: 6.00 Build 0)  -->
<!DOCTYPE svg PUBLIC "-//W3C//DTD SVG 1.1//EN" "http://www.w3.org/Graphics/SVG/1.1/DTD/svg11.dtd">
<svg version="1.1" id="Capa_1" xmlns="http://www.w3.org/2000/svg" xmlns:xlink="http://www.w3.org/1999/xlink" x="0px" y="0px"
	 width="595.279px" height="595.281px" viewBox="0 123.305 595.279 595.281" enable-background="new 0 123.305 595.279 595.281"
	 xml:space="preserve">
<g>
	<g>
		<path fill="#55565A" d="M456.381,698.742H19.843V252.282h99.213c5.953,0,9.922-3.968,9.922-9.921v-99.213h327.403v327.405h19.843
			V133.226c0-5.953-3.969-9.921-9.921-9.921H119.056l0,0c-0.992,0-1.984,0-2.977,0.992h-0.992c-0.992,0.992-1.984,0.992-2.976,1.984
			l0,0L2.977,235.416l0,0c-0.992,0.992-0.992,1.984-1.984,2.977v0.992c0,0.992-0.992,1.984-0.992,2.976l0,0v466.303
			c0,5.953,3.969,9.922,9.921,9.922h456.382c5.952,0,9.921-3.969,9.921-9.922v-39.686h-19.843V698.742L456.381,698.742z
			 M33.733,232.439l37.701-37.701l37.701-37.701v75.402H33.733z"/>
		<path fill="#55565A" d="M585.359,500.316H456.381v19.842h119.057v99.215H59.528v19.842h525.831c5.953,0,9.921-3.969,9.921-9.922
			V510.238C595.28,504.285,591.312,500.316,585.359,500.316z"/>
		<rect x="59.528" y="540.001" fill="#55565A" width="198.427" height="19.842"/>
		<rect x="59.528" y="579.687" fill="#82BC00" width="436.539" height="19.842"/>
		<rect x="287.719" y="540.001" fill="#55565A" width="49.606" height="19.842"/>
		<rect x="367.089" y="540.001" fill="#55565A" width="49.606" height="19.842"/>
		<rect x="99.213" y="440.789" fill="#55565A" width="49.606" height="19.842"/>
		<rect x="59.528" y="440.789" fill="#55565A" width="29.765" height="19.842"/>
		<rect x="59.528" y="480.472" fill="#55565A" width="49.607" height="19.844"/>
		<rect x="119.056" y="480.472" fill="#55565A" width="29.764" height="19.844"/>
		<rect x="99.213" y="361.417" fill="#55565A" width="49.606" height="19.843"/>
		<rect x="59.528" y="361.417" fill="#55565A" width="29.765" height="19.843"/>
		<rect x="59.528" y="401.103" fill="#55565A" width="49.607" height="19.843"/>
		<rect x="119.056" y="401.103" fill="#55565A" width="29.764" height="19.843"/>
		<rect x="367.089" y="172.912" fill="#55565A" width="59.528" height="19.843"/>
		<rect x="396.854" y="212.597" fill="#55565A" width="29.764" height="19.842"/>
		<path fill="#82BC00" d="M188.505,401.103v99.213h19.843v-99.213c0-27.78,21.827-49.607,49.606-49.607h12.898l27.779,73.418
			c0.992,2.977,4.961,5.953,8.929,5.953c3.969,0,7.938-2.977,10.914-5.953l27.779-73.418h10.914
			c27.779,0,49.606,21.827,49.606,49.607v99.213h19.843v-99.213c0-38.693-30.756-69.45-69.449-69.45h-99.214
			C219.262,331.653,188.505,362.409,188.505,401.103z M308.553,393.166l-15.873-41.67h31.748L308.553,393.166z"/>
		<rect x="297.64" y="440.789" fill="#55565A" width="19.843" height="19.842"/>
		<rect x="297.64" y="480.472" fill="#55565A" width="19.843" height="19.844"/>
		<path fill="#82BC00" d="M297.64,321.731h19.843c27.779,0,49.606-21.827,49.606-49.606v-29.764
			c0-27.78-21.827-49.606-49.606-49.606H297.64c-27.779,0-49.606,21.827-49.606,49.606v29.764
			C248.033,299.905,269.861,321.731,297.64,321.731z M267.876,242.361c0-16.866,12.897-29.764,29.764-29.764h19.843
			c16.866,0,29.764,12.897,29.764,29.764v29.764c0,16.866-12.897,29.764-29.764,29.764H297.64
			c-16.866,0-29.764-12.898-29.764-29.764V242.361z"/>
		<rect x="238.113" y="430.867" fill="#82BC00" width="19.842" height="69.449"/>
		<rect x="357.168" y="430.867" fill="#82BC00" width="19.843" height="69.449"/>
	</g>
</g>
</svg>
