<?xml version="1.0" encoding="utf-8"?>
<!-- Generator: Adobe Illustrator 19.1.0, SVG Export Plug-In . SVG Version: 6.00 Build 0)  -->
<svg version="1.1" id="Capa_1" xmlns="http://www.w3.org/2000/svg" xmlns:xlink="http://www.w3.org/1999/xlink" x="0px" y="0px"
	 viewBox="-49 141 512 512" style="enable-background:new -49 141 512 512;" xml:space="preserve">
<style type="text/css">
	.st0{fill:#5D5D5D;}
	.st1{fill:#82BC00;}
</style>
<g>
	<g>
		<path class="st0" d="M249.7,414.1c0-5.1-3.4-8.5-8.5-8.5h-42.7c-5.1,0-8.5,3.4-8.5,8.5v22.2C172.9,420,143.9,397,105.5,397H86.7
			c-13.7,0-24.7,11.1-24.7,24.7v0.9h-86.2c-13.7,0-24.7,14.5-24.7,27.3v16.2c0,6,2.6,11.9,6.8,16.2c-4.3,4.3-6.8,10.2-6.8,16.2v16.2
			c0,6.8,2.6,12.8,6,17.1c-4.3,4.3-6,9.4-6,15.4v16.2c0,6,1.7,10.2,6,14.5c-3.4,4.3-6,9.4-6,14.5v18.8c0,13.7,11.1,24.7,24.7,24.7
			H79h0.9h110.1v8.5c0,5.1,3.4,8.5,8.5,8.5h42.7c5.1,0,8.5-3.4,8.5-8.5v-17.1H463v-17.1H249.7V439.7H463v-17.1H249.7V414.1z
			 M79,421.7c0-3.4,2.6-7.7,7.7-7.7h18.8c3.4,0,7.7,2.6,7.7,7.7v104.1c0,3.4-2.6,7.7-7.7,7.7H86.7c-3.4,0-7.7-2.6-7.7-7.7v-86.2
			L79,421.7L79,421.7z M87.5,563.4c0,1.7,0,4.3-6.8,4.3h-0.9H-24.3c-0.9,0-7.7,0-7.7-4.3v-16.2c0-3.4,4.3-5.1,7.7-5.1h69.1h23
			c4.3,5.1,11.1,8.5,18.8,8.5h0.9V563.4L87.5,563.4z M-31.9,514.8v-16.2c0-3.4,4.3-7.7,7.7-7.7h69.1h17.1V525H44.9h-69.1
			C-27.7,525-31.9,519.9-31.9,514.8z M-31.9,449.9c0-4.3,5.1-10.2,7.7-10.2h86.2v34.1H44.9h-69.1c-3.4,0-7.7-2.6-7.7-7.7V449.9z
			 M79,618.9H-24.3c-3.4,0-7.7-2.6-7.7-7.7v-18.8c0-3.4,4.3-7.7,7.7-7.7H79.9c3.4,0,7.7,2.6,7.7,7.7v18.8
			C87.5,614.6,83.3,618.9,79,618.9L79,618.9z M102.9,618.9c0.9-2.6,1.7-5.1,1.7-7.7v-18.8c0-6-1.7-11.1-5.1-15.4
			c3.4-3.4,5.1-8.5,5.1-13.7v-12.8h0.9c13.7,0,24.7-11.1,24.7-24.7V421.7c0-1.7,0-2.6,0-4.3c32.4,9.4,54.6,35.8,59.7,43.5v157.9
			H102.9z M232.6,635.9H207v-8.5v-169v-35.8h25.6v8.5v187.7V635.9z"/>
		<rect x="266.7" y="567.7" class="st1" width="25.6" height="17.1"/>
		<rect x="309.4" y="567.7" class="st1" width="25.6" height="17.1"/>
		<path class="st0" d="M463,182.8c0-12.8-11.9-24.7-24.7-24.7H335h-0.9H224.1v-8.5c0-5.1-3.4-8.5-8.5-8.5h-42.7
			c-5.1,0-8.5,3.4-8.5,8.5v17.1H-49v17.1h213.3v170.7H-49v17.1h213.3v8.5c0,5.1,3.4,8.5,8.5,8.5h42.7c5.1,0,8.5-3.4,8.5-8.5V356
			c17.1,13.7,46.1,32.4,83.6,32.4c0,0,0,0,0.9,0h18.8c11.1,0,20.5-6.8,23-17.1h87.9c14.5,0,24.7-14.5,24.7-27.3v-16.2
			c0-6-2.6-11.9-6-16.2c3.4-4.3,6-10.2,6-16.2v-16.2c0-6.8-2.6-12.8-6-17.1c4.3-4.3,6-9.4,6-15.4v-16.2c0-5.1-1.7-10.2-5.1-13.7
			c3.4-4.3,5.1-9.4,5.1-15.4V182.8z M335,175.1h103.3c3.4,0,7.7,4.3,7.7,7.7v18.8c0,3.4-2.6,7.7-7.7,7.7H334.1
			c-3.4,0-7.7-4.3-7.7-7.7v-18.8C326.5,179.4,329,175.1,335,175.1L335,175.1z M445.9,230.6v16.2c0,3.4-4.3,5.1-7.7,5.1h-69.1h-18.8
			c-3.4-9.4-12.8-17.1-23-17.1h-0.9v-4.3c0-1.7,0-4.3,6.8-4.3h0.9h104.1C445.9,226.3,445.9,229.7,445.9,230.6z M445.9,279.2v16.2
			c0,3.4-2.6,7.7-7.7,7.7h-69.1h-17.1V269h17.1h69.1C441.7,269,445.9,274.1,445.9,279.2z M207,371.4h-25.6v-8.5V175.1v-17.1H207v8.5
			v169V371.4z M224.1,175.1h87c-0.9,2.6-1.7,5.1-1.7,7.7v18.8c0,5.1,2.6,10.2,5.1,14.5c-3.4,3.4-5.1,8.5-5.1,14.5v4.3h-0.9
			c-13.7,0-24.7,11.1-24.7,24.7v104.1c0,1.7,0,2.6,0.9,4.3c-31.6-8.5-53.8-29-60.6-35.8L224.1,175.1L224.1,175.1z M327.3,371.4
			h-17.9h-0.9c-3.4,0-7.7-4.3-7.7-7.7V259.6c0-3.4,2.6-7.7,7.7-7.7h18.8c3.4,0,7.7,4.3,7.7,7.7v94.7v9.4
			C335,367.1,332.4,371.4,327.3,371.4z M445.9,344.1c0,4.3-3.4,10.2-7.7,10.2h-86.2v-34.1h17.1h69.1c3.4,0,7.7,2.6,7.7,7.7V344.1z"
			/>
		<rect x="121.7" y="209.3" class="st1" width="25.6" height="17.1"/>
		<rect x="79" y="209.3" class="st1" width="25.6" height="17.1"/>
		<rect x="181.4" y="158.1" class="st1" width="25.6" height="213.3"/>
		<rect x="207" y="422.6" class="st1" width="25.6" height="213.3"/>
	</g>
</g>
</svg>
