<?xml version="1.0" encoding="utf-8"?>
<!-- Generator: Adobe Illustrator 16.0.0, SVG Export Plug-In . SVG Version: 6.00 Build 0)  -->
<!DOCTYPE svg PUBLIC "-//W3C//DTD SVG 1.1//EN" "http://www.w3.org/Graphics/SVG/1.1/DTD/svg11.dtd">
<svg version="1.1" id="Capa_1" xmlns="http://www.w3.org/2000/svg" xmlns:xlink="http://www.w3.org/1999/xlink" x="0px" y="0px"
	 width="595.279px" height="595.281px" viewBox="0 0 595.279 595.281" enable-background="new 0 0 595.279 595.281"
	 xml:space="preserve">
<g>
	<g>
		<path fill="#55565A" d="M576.925,248.032c0-87.308-71.434-158.741-158.742-158.741c-89.291,0-161.716,71.434-161.716,158.741
			h19.842c0-76.394,63.498-138.899,141.875-138.899c76.395,0,138.9,62.505,138.9,138.899c0,67.466-47.623,125.009-114.098,136.915
			c-4.961,0.992-7.938,4.961-7.938,9.92v61.514h-29.764v-59.528H385.44v59.528h-19.842c-5.953,0-9.922,3.97-9.922,9.92V595.28
			h19.844v-39.686h49.605v-19.843H375.52v-19.844h49.605v-19.842H375.52v-19.844h19.842h49.607h19.842v119.057h19.844V466.302
			c0-5.951-3.969-9.921-9.922-9.921h-19.844v-53.575C526.325,385.94,576.925,322.442,576.925,248.032z"/>
		<path fill="#82BC00" d="M236.622,386.933h-99.214c-38.693,0-69.449,30.756-69.449,69.448v119.056H38.197v-446.46h99.213
			c5.953,0,9.922-3.968,9.922-9.921V19.842h327.404v49.607h19.842V9.921c0-5.953-3.969-9.921-9.92-9.921H137.408l0,0
			c-0.992,0-1.984,0-2.977,0.992h-0.992c-0.992,0.992-1.984,0.992-2.978,1.984l0,0L21.329,112.11l0,0
			c-0.992,0.992-0.992,1.984-1.983,2.977v0.992c0,0.992-0.992,1.984-0.992,2.976l0,0v466.303c0,5.953,3.968,9.922,9.921,9.922
			H286.23h9.921h9.922V456.381C306.071,417.688,275.316,386.933,236.622,386.933z M52.085,109.133l37.701-37.701l37.701-37.701
			v75.402H52.085z M203.881,406.774l-15.874,41.67l-15.873-41.67H203.881z M286.23,575.437h-29.765v-89.291h-19.843v89.291h-99.214
			v-89.291h-19.843v89.291H87.803V456.381c0-27.778,21.826-49.606,49.605-49.606h12.897l27.779,73.418
			c0.992,2.977,4.961,5.953,8.93,5.953s7.938-2.978,10.914-5.953l27.778-73.418h10.914c27.779,0,49.606,21.828,49.606,49.607
			v119.055H286.23z"/>
		<rect x="177.095" y="505.986" fill="#55565A" width="19.843" height="19.844"/>
		<rect x="177.095" y="545.672" fill="#55565A" width="19.843" height="19.845"/>
		<path fill="#82BC00" d="M177.095,377.011h19.843c27.778,0,49.605-21.826,49.605-49.607V297.64
			c0-27.779-21.827-49.606-49.605-49.606h-19.843c-27.78,0-49.606,21.827-49.606,49.606v29.764
			C127.489,355.185,149.315,377.011,177.095,377.011z M147.33,297.64c0-16.867,12.897-29.764,29.765-29.764h19.843
			c16.866,0,29.764,12.896,29.764,29.764v29.763c0,16.867-12.896,29.764-29.764,29.764h-19.843
			c-16.866,0-29.765-12.896-29.765-29.764V297.64z"/>
		<path fill="#55565A" d="M524.341,248.032c0-60.52-48.613-109.135-109.135-109.135c-60.52,0-109.135,48.615-109.135,109.135
			c0,60.521,48.615,109.134,109.135,109.134C475.727,357.166,524.341,308.554,524.341,248.032z M325.913,248.032
			c0-49.607,39.688-89.292,89.293-89.292c49.607,0,89.293,39.685,89.293,89.292s-39.686,89.292-89.293,89.292
			C365.6,337.324,325.913,297.64,325.913,248.032z"/>
		<rect x="405.284" y="238.111" fill="#82BC00" width="19.844" height="19.843"/>
		<rect x="444.971" y="238.111" fill="#82BC00" width="19.842" height="19.843"/>
		<rect x="365.6" y="238.111" fill="#82BC00" width="19.842" height="19.843"/>
		<rect x="405.284" y="198.425" fill="#82BC00" width="19.844" height="19.844"/>
		<rect x="405.284" y="277.798" fill="#82BC00" width="19.844" height="19.842"/>
		<rect x="77.88" y="158.74" fill="#55565A" width="99.215" height="19.843"/>
		<rect x="77.88" y="198.425" fill="#55565A" width="99.215" height="19.844"/>
		<rect x="196.938" y="158.74" fill="#55565A" width="19.843" height="19.843"/>
		<rect x="196.938" y="198.425" fill="#55565A" width="19.843" height="19.844"/>
		<rect x="18.354" y="575.438" fill="#55565A" width="316.785" height="19.843"/>
	</g>
</g>
</svg>
