<?xml version="1.0" encoding="utf-8"?>
<!-- Generator: Adobe Illustrator 16.0.0, SVG Export Plug-In . SVG Version: 6.00 Build 0)  -->
<!DOCTYPE svg PUBLIC "-//W3C//DTD SVG 1.1//EN" "http://www.w3.org/Graphics/SVG/1.1/DTD/svg11.dtd">
<svg version="1.1" id="Capa_1" xmlns="http://www.w3.org/2000/svg" xmlns:xlink="http://www.w3.org/1999/xlink" x="0px" y="0px"
	 width="595.279px" height="595.281px" viewBox="0 123.305 595.279 595.281" enable-background="new 0 123.305 595.279 595.281"
	 xml:space="preserve">
<g>
	<path fill="#82BC00" d="M297.64,328.791c32.944,0,59.649-26.708,59.649-59.652c0-32.944-26.705-59.652-59.649-59.652
		s-59.654,26.708-59.654,59.652C237.986,302.083,264.696,328.791,297.64,328.791z M297.64,228.089
		c22.635,0,41.048,18.414,41.048,41.05c0,22.635-18.413,41.049-41.048,41.049s-41.051-18.414-41.051-41.049
		C256.587,246.504,275.005,228.089,297.64,228.089z"/>
	<path fill="#82BC00" d="M237.182,342.496c0,0-60.459,0.807-60.459,56.428s0,68.52,0,68.52s117.687,0,118.092,0L237.182,342.496z
		 M195.326,398.923c0-24.907,17.82-33.433,30.634-36.342l39.789,86.258h-70.423V398.923z"/>
	<path fill="#82BC00" d="M418.556,467.443c0,0,0-12.898,0-68.52s-60.459-56.428-60.459-56.428l-57.638,124.947H418.556z
		 M369.321,362.581c12.812,2.909,30.634,11.433,30.634,36.342v49.918h-70.427L369.321,362.581z"/>
	<polygon fill="#55565A" points="256.123,342.496 297.639,434.392 339.153,342.496 297.639,342.496 	"/>
	<path fill="#55565A" d="M446.46,123.305H65.109v595.281h465.063V216.318L446.46,123.305z M446.846,151.541l59.346,65.939h-59.346
		V151.541z M83.711,699.984V141.908h344.532v94.176h83.325v463.9H83.711z"/>
	<rect x="158.126" y="531.871" fill="#55565A" width="279.036" height="18.602"/>
	<rect x="158.126" y="579.412" fill="#82BC00" width="279.036" height="18.604"/>
	<rect x="158.126" y="626.953" fill="#82BC00" width="279.036" height="18.604"/>
</g>
</svg>
