<?xml version="1.0" encoding="utf-8"?>
<!-- Generator: Adobe Illustrator 19.1.0, SVG Export Plug-In . SVG Version: 6.00 Build 0)  -->
<svg version="1.1" id="Capa_1" xmlns="http://www.w3.org/2000/svg" xmlns:xlink="http://www.w3.org/1999/xlink" x="0px" y="0px"
	 viewBox="-7 99.7 595.3 595.3" style="enable-background:new -7 99.7 595.3 595.3;" xml:space="preserve">
<style type="text/css">
	.st0{fill:#82BC00;}
	.st1{fill:#55565A;}
</style>
<g>
	<g>
		<rect x="44.4" y="565.5" class="st0" width="19.8" height="128.5"/>
		<rect x="163.1" y="565.5" class="st0" width="19.8" height="128.5"/>
		<rect x="103.8" y="605" class="st1" width="19.8" height="19.8"/>
		<rect x="103.8" y="644.6" class="st1" width="19.8" height="19.8"/>
		<path class="st0" d="M103.8,476.5h19.8c27.7,0,49.4-21.8,49.4-49.4v-29.7c0-27.7-21.8-49.4-49.4-49.4h-19.8
			c-27.7,0-49.4,21.8-49.4,49.4V427C54.3,454.7,76.1,476.5,103.8,476.5z M74.1,397.4c0-16.8,12.9-29.7,29.7-29.7h19.8
			c16.8,0,29.7,12.9,29.7,29.7V427c0,16.8-12.9,29.7-29.7,29.7h-19.8c-16.8,0-29.7-12.9-29.7-29.7V397.4z"/>
		<path class="st0" d="M519.1,486.4h-89h-9.9H163.1h-19.8H64.2C25.7,486.4-5,517-5,555.6V694h19.8V555.6c0-27.7,21.8-49.4,49.4-49.4
			h12.9l27.7,73.2c1,3,4.9,5.9,8.9,5.9c4,0,7.9-3,10.9-5.9l27.7-73.2h10.9c27.7,0,49.4,21.8,49.4,49.4V694h19.8V555.6
			c0-19.8-7.9-36.6-20.8-49.4h43.5l27.7,73.2c1,3,4.9,5.9,8.9,5.9c4,0,7.9-3,10.9-5.9l27.7-73.2h41.5C358.9,519,351,535.8,351,555.6
			V694h19.8V555.6c0-27.7,21.8-49.4,49.4-49.4h9.9h3l27.7,73.2c1,3,4.9,5.9,8.9,5.9s7.9-3,10.9-5.9l27.7-73.2h10.9
			c27.7,0,49.4,21.8,49.4,49.4V694h19.8V555.6C588.3,517,557.6,486.4,519.1,486.4z M114.6,547.7l-15.8-41.5h31.6L114.6,547.7z
			 M292.6,547.7l-15.8-41.5h31.6L292.6,547.7z M470.6,547.7l-15.8-41.5h31.6L470.6,547.7z"/>
		<rect x="400.4" y="565.5" class="st0" width="19.8" height="128.5"/>
		<rect x="519.1" y="565.5" class="st0" width="19.8" height="128.5"/>
		<rect x="459.7" y="605" class="st1" width="19.8" height="19.8"/>
		<rect x="459.7" y="644.6" class="st1" width="19.8" height="19.8"/>
		<path class="st0" d="M459.7,476.5h19.8c27.7,0,49.4-21.8,49.4-49.4v-29.7c0-27.7-21.8-49.4-49.4-49.4h-19.8
			c-27.7,0-49.4,21.8-49.4,49.4V427C410.3,454.7,432,476.5,459.7,476.5z M430.1,397.4c0-16.8,12.9-29.7,29.7-29.7h19.8
			c16.8,0,29.7,12.9,29.7,29.7V427c0,16.8-12.9,29.7-29.7,29.7h-19.8c-16.8,0-29.7-12.9-29.7-29.7V397.4z"/>
		<rect x="281.8" y="605" class="st1" width="19.8" height="19.8"/>
		<rect x="281.8" y="644.6" class="st1" width="19.8" height="19.8"/>
		<path class="st0" d="M281.8,347.9c-27.7,0-49.4,21.8-49.4,49.4V427c0,27.7,21.8,49.4,49.4,49.4h19.8c27.7,0,49.4-21.8,49.4-49.4
			v-29.7c0-27.7-21.8-49.4-49.4-49.4H281.8z M331.2,397.4V427c0,16.8-12.9,29.7-29.7,29.7h-19.8c-16.8,0-29.7-12.9-29.7-29.7v-29.7
			c0-16.8,12.9-29.7,29.7-29.7h19.8C318.3,367.7,331.2,380.5,331.2,397.4z"/>
		<path class="st1" d="M548.7,199.6H400.4V160h19.8c5.9,0,9.9-4,9.9-9.9v-39.6c0-5.9-4-9.9-9.9-9.9H163.1c-5.9,0-9.9,4-9.9,9.9v39.6
			c0,5.9,4,9.9,9.9,9.9h19.8v39.6H34.6C12.8,199.6-5,217.4-5,239.2v148.3c0,5.9,4,9.9,9.9,9.9h29.7v-19.8H14.8V239.2
			c0-10.9,8.9-19.8,19.8-19.8h158.2h197.8h158.2c10.9,0,19.8,8.9,19.8,19.8v138.4h-19.8v19.8h29.7c5.9,0,9.9-4,9.9-9.9V239.2
			C588.3,217.4,570.5,199.6,548.7,199.6z M173,120.5h237.3v19.8H173V120.5z M202.6,199.6V160h178v39.6H202.6z"/>
		<path class="st1" d="M212.5,318.3v29.7h19.8v-19.8H351v19.8h19.8v-29.7c0-5.9-4-9.9-9.9-9.9H222.4
			C216.5,308.4,212.5,312.3,212.5,318.3z"/>
		<rect x="222.4" y="258.9" class="st0" width="79.1" height="19.8"/>
		<rect x="321.3" y="258.9" class="st0" width="39.6" height="19.8"/>
	</g>
</g>
</svg>
