<?xml version="1.0" encoding="utf-8"?>
<!-- Generator: Adobe Illustrator 16.0.0, SVG Export Plug-In . SVG Version: 6.00 Build 0)  -->
<!DOCTYPE svg PUBLIC "-//W3C//DTD SVG 1.1//EN" "http://www.w3.org/Graphics/SVG/1.1/DTD/svg11.dtd">
<svg version="1.1" id="Capa_1" xmlns="http://www.w3.org/2000/svg" xmlns:xlink="http://www.w3.org/1999/xlink" x="0px" y="0px"
	 width="595.279px" height="595.281px" viewBox="0 123.305 595.279 595.281" enable-background="new 0 123.305 595.279 595.281"
	 xml:space="preserve">
<g>
	<g>
		<path fill="#55565A" d="M585.359,331.653c5.953,0,9.921-3.968,9.921-9.921v-79.371c0-5.953-3.968-9.921-9.921-9.921h-69.449
			v-29.764c0-5.953-3.969-9.921-9.922-9.921h-19.842v-69.45h-19.843v69.45H446.46c-5.953,0-9.922,3.968-9.922,9.921v29.764h-69.449
			c-5.952,0-9.921,3.969-9.921,9.921v79.371c0,5.953,3.969,9.921,9.921,9.921h29.765v89.292h19.842V381.26h49.607v49.607h19.843
			V381.26h49.606v317.482h-49.606V460.63c0-5.953-3.969-9.922-9.922-9.922H287.719V162.99c0-5.953-3.969-9.921-9.922-9.921H49.607
			c-5.953,0-9.921,3.969-9.921,9.921v535.751H0v19.844h49.606h357.168h69.449h69.449h49.606v-19.844h-39.685V331.653H585.359z
			 M406.775,698.742H59.528V212.597h138.899v-19.843H59.528v-19.843h208.349V460.63v198.428h19.843V470.552h178.584v228.189H406.775
			z M456.381,212.597h39.686v19.842h-39.686V212.597z M377.011,252.282h69.449h59.527h69.45v59.528h-29.765H406.775h-29.764V252.282
			z M535.752,361.417H416.696v-29.764h119.057V361.417z"/>
		<rect x="406.775" y="272.125" fill="#82BC00" width="19.843" height="19.843"/>
		<rect x="436.538" y="272.125" fill="#82BC00" width="19.843" height="19.843"/>
		<rect x="466.303" y="272.125" fill="#82BC00" width="19.843" height="19.843"/>
		<rect x="496.067" y="272.125" fill="#82BC00" width="19.843" height="19.843"/>
		<rect x="525.83" y="272.125" fill="#82BC00" width="19.843" height="19.843"/>
		<path fill="#82BC00" d="M99.213,301.889h39.686c5.953,0,9.921-3.969,9.921-9.921v-39.686c0-5.953-3.968-9.921-9.921-9.921H99.213
			c-5.952,0-9.921,3.969-9.921,9.921v39.686C89.292,297.92,93.261,301.889,99.213,301.889z M109.135,262.204h19.843v19.843h-19.843
			V262.204z"/>
		<path fill="#82BC00" d="M228.191,242.361h-39.686c-5.952,0-9.921,3.969-9.921,9.921v39.686c0,5.953,3.969,9.921,9.921,9.921
			h39.686c5.953,0,9.922-3.969,9.922-9.921v-39.686C238.113,246.33,234.144,242.361,228.191,242.361z M218.27,282.046h-19.843
			v-19.843h19.843V282.046z"/>
		<path fill="#82BC00" d="M99.213,381.26h39.686c5.953,0,9.921-3.969,9.921-9.921v-39.686c0-5.953-3.968-9.921-9.921-9.921H99.213
			c-5.952,0-9.921,3.969-9.921,9.921v39.686C89.292,377.291,93.261,381.26,99.213,381.26z M109.135,341.574h19.843v19.843h-19.843
			V341.574z"/>
		<path fill="#82BC00" d="M228.191,321.731h-39.686c-5.952,0-9.921,3.969-9.921,9.921v39.686c0,5.953,3.969,9.921,9.921,9.921
			h39.686c5.953,0,9.922-3.969,9.922-9.921v-39.686C238.113,325.7,234.144,321.731,228.191,321.731z M218.27,361.417h-19.843
			v-19.843h19.843V361.417z"/>
		<path fill="#82BC00" d="M99.213,460.63h39.686c5.953,0,9.921-3.969,9.921-9.922v-39.685c0-5.953-3.968-9.921-9.921-9.921H99.213
			c-5.952,0-9.921,3.968-9.921,9.921v39.685C89.292,456.662,93.261,460.63,99.213,460.63z M109.135,420.945h19.843v19.843h-19.843
			V420.945z"/>
		<path fill="#82BC00" d="M228.191,401.103h-39.686c-5.952,0-9.921,3.968-9.921,9.921v39.685c0,5.953,3.969,9.922,9.921,9.922
			h39.686c5.953,0,9.922-3.969,9.922-9.922v-39.685C238.113,405.071,234.144,401.103,228.191,401.103z M218.27,440.789h-19.843
			v-19.843h19.843V440.789z"/>
		<path fill="#82BC00" d="M99.213,540.001h39.686c5.953,0,9.921-3.969,9.921-9.922v-39.686c0-5.953-3.968-9.922-9.921-9.922H99.213
			c-5.952,0-9.921,3.969-9.921,9.922v39.686C89.292,536.033,93.261,540.001,99.213,540.001z M109.135,500.316h19.843v19.842h-19.843
			V500.316z"/>
		<path fill="#82BC00" d="M228.191,480.472h-39.686c-5.952,0-9.921,3.969-9.921,9.922v39.686c0,5.953,3.969,9.922,9.921,9.922
			h39.686c5.953,0,9.922-3.969,9.922-9.922v-39.686C238.113,484.441,234.144,480.472,228.191,480.472z M218.27,520.158h-19.843
			v-19.842h19.843V520.158z"/>
		<path fill="#82BC00" d="M138.899,619.373c5.953,0,9.921-3.969,9.921-9.922v-39.686c0-5.953-3.968-9.922-9.921-9.922H99.213
			c-5.952,0-9.921,3.969-9.921,9.922v39.686c0,5.953,3.969,9.922,9.921,9.922H138.899z M109.135,579.687h19.843v19.842h-19.843
			V579.687z"/>
		<path fill="#82BC00" d="M228.191,559.843h-39.686c-5.952,0-9.921,3.969-9.921,9.922v39.686c0,5.953,3.969,9.922,9.921,9.922
			h39.686c5.953,0,9.922-3.969,9.922-9.922v-39.686C238.113,563.812,234.144,559.843,228.191,559.843z M218.27,599.529h-19.843
			v-19.842h19.843V599.529z"/>
		<rect x="99.213" y="649.136" fill="#82BC00" width="128.978" height="19.842"/>
		<rect x="307.561" y="490.394" fill="#82BC00" width="29.765" height="19.844"/>
		<rect x="357.168" y="490.394" fill="#82BC00" width="29.764" height="19.844"/>
		<rect x="406.775" y="490.394" fill="#82BC00" width="29.764" height="19.844"/>
		<rect x="307.561" y="530.08" fill="#82BC00" width="29.765" height="19.844"/>
		<rect x="357.168" y="530.08" fill="#82BC00" width="29.764" height="19.844"/>
		<rect x="406.775" y="530.08" fill="#82BC00" width="29.764" height="19.844"/>
		<rect x="307.561" y="569.765" fill="#82BC00" width="29.765" height="19.842"/>
		<rect x="357.168" y="569.765" fill="#82BC00" width="29.764" height="19.842"/>
		<rect x="406.775" y="569.765" fill="#82BC00" width="29.764" height="19.842"/>
		<rect x="307.561" y="609.451" fill="#82BC00" width="29.765" height="19.842"/>
		<rect x="357.168" y="609.451" fill="#82BC00" width="29.764" height="19.842"/>
		<rect x="406.775" y="609.451" fill="#82BC00" width="29.764" height="19.842"/>
		<rect x="307.561" y="649.136" fill="#82BC00" width="29.765" height="19.842"/>
		<rect x="357.168" y="649.136" fill="#82BC00" width="29.764" height="19.842"/>
		<rect x="406.775" y="649.136" fill="#82BC00" width="29.764" height="19.842"/>
	</g>
</g>
</svg>
