<?xml version="1.0" encoding="utf-8"?>
<!-- Generator: Adobe Illustrator 19.1.0, SVG Export Plug-In . SVG Version: 6.00 Build 0)  -->
<svg version="1.1" id="Capa_1" xmlns="http://www.w3.org/2000/svg" xmlns:xlink="http://www.w3.org/1999/xlink" x="0px" y="0px"
	 viewBox="31.3 268.7 256 256" style="enable-background:new 31.3 268.7 256 256;" xml:space="preserve">
<style type="text/css">
	.st0{fill:#5D5D5D;}
	.st1{fill:#82BC00;}
</style>
<g>
	<path class="st0" d="M281.1,475.9l-45.9-165.2l-39.5,11l4.4,15.7h-44v-21.9h-41v16.2H92.8V296H37.5v191H85h7.9h22.2h7.9h25.3h7.9
		h51.5V364.4l34,122.5L281.1,475.9z M122.9,323.3h25.3v19.5h-25.3V323.3z M122.9,375.4h25.3v89.4h-25.3V375.4z M122.9,367.6v-4.5
		h25.3v4.5H122.9z M122.9,355.2v-4.5h25.3v4.5H122.9z M85,463.7H45.3V319H85V463.7z M85,303.8v7.3H45.3v-7.3H85z M45.3,479.1v-7.4
		H85v7.4H45.3z M115.1,479.1H92.8V339.6h22.2V479.1z M122.9,479.1v-6.3h25.3v6.3H122.9z M199.7,479.1h-43.6V345.3h43.6V479.1z
		 M247,477.2l-27.7-99.6l24.4-6.8l27.7,99.6L247,477.2z M217.3,370l-2.2-7.8l24.4-6.8l2.2,7.8L217.3,370z M229.8,320.4l7.6,27.5
		l-24.4,6.8l-7.6-27.5L229.8,320.4z"/>
	<rect x="165.2" y="353.8" class="st1" width="25.3" height="7.9"/>
	<rect x="165.2" y="367.6" class="st1" width="25.3" height="7.9"/>
	<rect x="165.2" y="381.4" class="st1" width="25.3" height="7.9"/>
	<rect x="165.2" y="461.4" class="st1" width="25.3" height="7.9"/>
	<rect x="100" y="412.4" class="st1" width="7.9" height="13.2"/>
	<rect x="100" y="433.1" class="st1" width="7.9" height="29.9"/>
	<rect x="100" y="369.2" class="st1" width="7.9" height="35.7"/>
	<rect x="100" y="348.5" class="st1" width="7.9" height="13.8"/>
	<rect x="45.3" y="311.2" class="st1" width="39.6" height="7.9"/>
	<rect x="45.3" y="463.7" class="st1" width="39.6" height="7.9"/>
	<rect x="122.9" y="342.8" class="st1" width="25.3" height="7.9"/>
	<rect x="122.9" y="354.8" class="st1" width="25.3" height="8.9"/>
	<rect x="122.9" y="366.8" class="st1" width="25.3" height="7.9"/>
	<rect x="122.9" y="465.4" class="st1" width="25.3" height="7.9"/>
	
		<rect x="213.5" y="350.8" transform="matrix(-0.9649 0.2627 -0.2627 -0.9649 537.5262 637.6507)" class="st1" width="25.3" height="7.9"/>
	
		<rect x="217.5" y="366.8" transform="matrix(-0.9649 0.2627 -0.2627 -0.9649 549.5895 668.0377)" class="st1" width="25.3" height="7.9"/>
</g>
</svg>
