<?xml version="1.0" encoding="utf-8"?>
<!-- Generator: Adobe Illustrator 19.1.0, SVG Export Plug-In . SVG Version: 6.00 Build 0)  -->
<svg version="1.1" id="Capa_1" xmlns="http://www.w3.org/2000/svg" xmlns:xlink="http://www.w3.org/1999/xlink" x="0px" y="0px"
	 viewBox="-49 141 512 512" style="enable-background:new -49 141 512 512;" xml:space="preserve">
<style type="text/css">
	.st0{fill:#82BC00;}
	.st1{fill:#5D5D5D;}
</style>
<g>
	<g>
		<path class="st0" d="M415.2,246.8l-42.7-100.7c-0.9-3.4-4.3-5.1-7.7-5.1H184.8c-11.1,0.9-33.3,12.8-33.3,50.3v291l-28.2-34.1
			l-12.8,11.1l41.8,50.3c1.7,2.6,4.3,3.4,6.8,3.4c2.6,0,5.1-0.9,5.1-3.4l1.7-1.7h2.6v-3.4l38.4-45.2l-12.8-11.1l-25.6,30.7V191.3
			c0-28.2,14.5-32.4,17.9-33.3h165.5l-37.5,88.7c-0.9,0.9-0.9,2.6-0.9,3.4v326v17.1v51.2c0,5.1,3.4,8.5,8.5,8.5h85.3
			c5.1,0,8.5-3.4,8.5-8.5V250.2C416.1,249.4,416.1,247.7,415.2,246.8z M399,635.9h-68.3v-42.7H399V635.9z M399,576.2h-25.6V277.5
			h-17.1v298.7h-25.6V260.5h42.7v-17.1h-39.3l30.7-71.7l34.1,80.2V576.2z"/>
		<path class="st1" d="M254.8,304.8c-2.6,0-5.1,0.9-6.8,2.6l-42.7,49.5l12.8,11.1l27.3-32.4v267.1c0,28.2-14.5,32.4-17.9,33.3H61.9
			l37.5-88.7c0.9-0.9,0.9-2.6,0.9-3.4V149.5c0-5.1-3.4-8.5-8.5-8.5H6.5c-5.1,0-8.5,3.4-8.5,8.5v394.2c0,0.9,0,2.6,0.9,3.4
			l42.7,100.7c0.9,3.4,4.3,5.1,7.7,5.1h180.1c11.1-0.9,33.3-12.8,33.3-50.3V335.6l28.2,33.3l12.8-11.1l-41.8-49.5
			C259.9,305.7,257.3,304.8,254.8,304.8z M83.3,158.1v42.7H15v-42.7H83.3z M15,542.1V217.8h25.6v298.7h17.1V217.8h25.6v315.7H40.6
			v17.1h39.3l-30.7,71.7L15,542.1z"/>
		<rect x="202.7" y="226.3" class="st1" width="17.1" height="17.1"/>
		<rect x="236.9" y="226.3" class="st1" width="17.1" height="17.1"/>
		<rect x="271" y="226.3" class="st1" width="17.1" height="17.1"/>
		<rect x="202.7" y="183.7" class="st1" width="17.1" height="17.1"/>
		<rect x="236.9" y="183.7" class="st1" width="17.1" height="17.1"/>
		<rect x="271" y="183.7" class="st1" width="17.1" height="17.1"/>
		<rect x="117.4" y="593.3" class="st0" width="17.1" height="17.1"/>
		<rect x="151.5" y="593.3" class="st0" width="17.1" height="17.1"/>
		<rect x="185.7" y="593.3" class="st0" width="17.1" height="17.1"/>
		<rect x="117.4" y="550.6" class="st0" width="17.1" height="17.1"/>
		<rect x="151.5" y="550.6" class="st0" width="17.1" height="17.1"/>
		<rect x="185.7" y="550.6" class="st0" width="17.1" height="17.1"/>
	</g>
</g>
</svg>
