<?xml version="1.0" encoding="utf-8"?>
<!-- Generator: Adobe Illustrator 19.1.0, SVG Export Plug-In . SVG Version: 6.00 Build 0)  -->
<svg version="1.1" id="Capa_1" xmlns="http://www.w3.org/2000/svg" xmlns:xlink="http://www.w3.org/1999/xlink" x="0px" y="0px"
	 viewBox="-49 141 512 512" style="enable-background:new -49 141 512 512;" xml:space="preserve">
<style type="text/css">
	.st0{fill:#82BC00;}
	.st1{fill:#5D5D5D;}
</style>
<g>
	<g>
		<path class="st0" d="M423.8,355.2H56.4c-1.7,0-3.5,0-4.4,0.9l-66.2,34.8c-2.6,1.7-4.4,4.4-4.4,7.8c0,3.5,1.7,6.1,4.4,7.8L52,441.4
			c1.7,0.9,2.6,0.9,4.4,0.9h367.5c5.2,0,8.7-3.5,8.7-8.7v-69.7C432.5,358.7,429,355.2,423.8,355.2z M58.1,372.6h304.8V390H92.9v17.4
			h269.9v17.4H66.8V390H49.4v30.5L8.5,398.7L58.1,372.6z M415.1,424.9h-34.8v-52.2h34.8V424.9z"/>
		<path class="st1" d="M32,215.9c0-5.2,3.5-8.7,8.7-8.7h148c5.2,0,8.7,3.5,8.7,8.7v95.8h17.4v-95.8c0-14.8-11.3-26.1-26.1-26.1h-148
			c-14.8,0-26.1,11.3-26.1,26.1v95.8H32C32,311.7,32,215.9,32,215.9z"/>
		<path class="st1" d="M380.3,590.3c0,5.2-3.5,8.7-8.7,8.7h-148c-5.2,0-8.7-3.5-8.7-8.7V477.1h-17.4v113.2
			c0,14.8,11.3,26.1,26.1,26.1h148c14.8,0,26.1-11.3,26.1-26.1V477.1h-17.4V590.3z"/>
		<path class="st1" d="M32,568.5V459.7H14.6v108.8c-19.2,4.4-33.1,20.9-33.1,41.8c0,23.5,19.2,42.7,42.7,42.7s42.7-19.2,42.7-42.7
			C66.8,589.4,52,572,32,568.5z M24.1,635.6c-13.9,0-25.3-11.3-25.3-25.3c0-13.9,11.3-25.3,25.3-25.3s25.3,11.3,25.3,25.3
			S38.1,635.6,24.1,635.6z"/>
		<path class="st1" d="M380.3,225.5v86.2h17.4v-86.2c20-3.5,34.8-20.9,34.8-41.8c0-23.5-19.2-42.7-42.7-42.7
			c-23.5,0-42.7,19.2-42.7,42.7C347.2,203.7,361.1,221.1,380.3,225.5z M389.9,158.4c13.9,0,25.3,11.3,25.3,25.3
			s-11.3,25.3-25.3,25.3c-13.9,0-25.3-11.3-25.3-25.3S375.9,158.4,389.9,158.4z"/>
	</g>
</g>
</svg>
