<?xml version="1.0" encoding="utf-8"?>
<!-- Generator: Adobe Illustrator 19.1.0, SVG Export Plug-In . SVG Version: 6.00 Build 0)  -->
<svg version="1.1" id="Capa_1" xmlns="http://www.w3.org/2000/svg" xmlns:xlink="http://www.w3.org/1999/xlink" x="0px" y="0px"
	 viewBox="-49 141 512 512" style="enable-background:new -49 141 512 512;" xml:space="preserve">
<style type="text/css">
	.st0{fill:#5D5D5D;}
	.st1{fill:#82BC00;}
	.st2{fill:#858585;}
</style>
<g>
	<g>
		<path class="st0" d="M454.5,149.5H-40.5c-5.1,0-8.5,3.4-8.5,8.5v375.5c0,5.1,3.4,8.5,8.5,8.5H207v-17.1H-31.9V166.5h477.9v358.4
			h-76.8V542h85.3c5.1,0,8.5-3.4,8.5-8.5V158C463,152.9,459.6,149.5,454.5,149.5z"/>
		<path class="st1" d="M-6.3,200.7v34.1h17.1v-25.6h25.6v-17.1H2.2C-2.9,192.1-6.3,195.5-6.3,200.7z"/>
		<path class="st1" d="M-6.3,490.8c0,5.1,3.4,8.5,8.5,8.5h34.1v-17.1H10.7v-25.6H-6.3V490.8z"/>
		<path class="st1" d="M420.3,200.7c0-5.1-3.4-8.5-8.5-8.5h-34.1v17.1h25.6v25.6h17.1V200.7z"/>
		<path class="st1" d="M377.7,499.3h34.1c5.1,0,8.5-3.4,8.5-8.5v-34.1h-17.1v25.6h-25.6V499.3z"/>
		<rect x="27.8" y="323.1" class="st0" width="358.4" height="17.1"/>
		<rect x="27.8" y="355.7" class="st0" width="358.4" height="17.1"/>
		<rect x="27.8" y="388.4" class="st0" width="358.4" height="17.1"/>
		<rect x="70.5" y="439.6" class="st0" width="34.1" height="17.1"/>
		<rect x="121.7" y="439.6" class="st0" width="34.1" height="17.1"/>
		<rect x="172.9" y="439.6" class="st0" width="34.1" height="17.1"/>
		<rect x="70.5" y="482.3" class="st0" width="34.1" height="17.1"/>
		<rect x="121.7" y="482.3" class="st0" width="34.1" height="17.1"/>
		<rect x="172.9" y="482.3" class="st0" width="34.1" height="17.1"/>
		<path class="st1" d="M288.1,424.2c-39.3,0-70.8,32.4-70.8,71.7c0,17.1,6,32.4,15.4,44.4v95.6c0,2.6,1.7,6,4.3,7.7
			c2.6,0.9,6,1.7,8.5,0l42.7-22.2l42.7,22.2c1.7,0.9,2.6,0.9,4.3,0.9c1.7,0,3.4,0,3.4-0.9c2.6-1.7,4.3-5.1,4.3-7.7v-94.7
			c10.2-12.8,16.2-28.2,16.2-45.2C358.9,456.7,327.3,424.2,288.1,424.2z M288.1,441.3c29.9,0,53.8,24.7,53.8,54.6
			c0,14.5-6,27.3-14.5,37.5h-1.7v1.7c-9.4,9.4-23,15.4-37.5,15.4c-15.4,0-29-6-38.4-16.2v-0.9h-0.9c-9.4-10.2-14.5-23-14.5-37.5
			C234.3,466.1,258.2,441.3,288.1,441.3z M291.5,604.3c-2.6-0.9-5.1-0.9-7.7,0l-34.1,17.9v-66.6c11.1,7.7,23.9,11.9,38.4,11.9
			c13.7,0,26.5-4.3,37.5-11.1v65.7L291.5,604.3z"/>
		<rect x="266.7" y="482.3" class="st2" width="42.7" height="17.1"/>
		<path class="st1" d="M255.1,230.7h-10.8c-0.4-0.4-0.4-1.2-0.8-1.5l7.3-7.3c0.8-0.8,1.2-1.5,1.2-2.7c0-1.2-0.4-1.9-1.2-2.7
			l-16.2-16.2c-1.5-1.5-3.9-1.5-5.4,0l-7.3,7.3c-0.8,0-1.2-0.4-1.5-0.4V196c0-2.3-1.5-3.9-3.9-3.9h-23.1c-2.3,0-3.9,1.5-3.9,3.9
			v10.8c-0.4,0.4-1.2,0.4-1.5,0.8l-7.3-7.3c-1.5-1.5-3.9-1.5-5.4,0l-16.2,16.2c-0.8,0.8-1.2,1.5-1.2,2.7s0.4,1.9,1.2,2.7l7.3,7.3
			c0,0.8-0.4,1.2-0.4,1.2H155c-2.3,0-3.9,1.5-3.9,3.9v23.1c0,2.3,1.5,3.9,3.9,3.9h10.8c0.4,0.4,0.4,1.2,0.8,1.5l-7.3,7.3
			c-0.8,0.8-1.2,1.5-1.2,2.7s0.4,1.9,1.2,2.7l16.2,16.2c1.5,1.5,3.9,1.5,5.4,0l7.3-7.3c0.8,0.4,1.2,0.4,1.5,0.8v11.2
			c0,2.3,1.5,3.9,3.9,3.9h23.1c2.3,0,3.9-1.5,3.9-3.9v-10.8c0.4-0.4,1.2-0.4,1.5-0.8l7.3,7.3c1.5,1.5,3.9,1.5,5.4,0l16.2-16.2
			c0.8-0.8,1.2-1.5,1.2-2.7s-0.4-1.9-1.2-2.7l-7.3-7.3c0.4-0.4,0.4-1.2,0.8-1.5h10.8c2.3,0,3.9-1.5,3.9-3.9v-23.1
			C259,232.2,257.5,230.7,255.1,230.7z M251.3,253.8h-9.6c-1.9,0-3.5,1.5-3.9,3.1c0,0.8-1.5,3.9-1.9,4.6c-0.4,0.8-0.8,1.5-0.8,2.3
			c0,1.2,0.4,1.9,1.2,2.7l6.5,6.5L232,283.8l-6.5-6.5c-0.8-0.8-1.5-1.2-2.7-1.2c-0.8,0-1.5,0.4-2.3,0.8s-3.9,1.5-4.6,1.9
			c-1.9,0.4-3.1,1.9-3.1,3.9v9.6h-15.4v-9.6c0-1.2-0.4-1.9-1.2-2.7c-0.8-1.2-7.3-3.9-8.9-3.9c-1.2,0-1.9,0.4-2.7,1.2l-6.5,6.5
			L167.3,273l6.5-6.5c0.8-0.8,1.2-1.5,1.2-2.7c0-0.8-0.4-1.5-0.8-2.3s-1.5-3.9-1.9-4.6c-0.4-1.9-1.9-3.1-3.9-3.1h-9.6v-15.4h9.6
			c1.2,0,1.9-0.4,2.7-1.2c1.2-0.8,3.9-7.3,3.9-8.9c0-1.2-0.4-1.9-1.2-2.7l-6.5-6.5l10.8-10.8l6.5,6.5c0.8,0.8,1.5,1.2,2.7,1.2
			c0.8,0,1.5-0.4,2.3-0.8s3.9-1.5,4.6-1.9c1.9-0.4,3.1-1.9,3.1-3.9v-9.6h15.4v9.6c0,1.2,0.4,1.9,1.2,2.7c0.8,1.2,7.3,3.9,8.9,3.9
			c1.2,0,1.9-0.4,2.7-1.2l6.5-6.5l10.8,10.8l-6.5,6.5c-0.8,0.8-1.2,1.5-1.2,2.7c0,0.8,0.4,1.5,0.8,2.3c0.4,0.8,1.5,3.9,1.9,4.6
			c0.4,1.9,1.9,3.1,3.9,3.1h9.6V253.8z"/>
		<path class="st1" d="M205.1,230.7c-8.5,0-15.4,6.9-15.4,15.4c0,8.5,6.9,15.4,15.4,15.4c8.5,0,15.4-6.9,15.4-15.4
			S213.5,230.7,205.1,230.7z M205.1,253.8c-4.2,0-7.7-3.5-7.7-7.7s3.5-7.7,7.7-7.7c4.2,0,7.7,3.5,7.7,7.7S209.3,253.8,205.1,253.8z"
			/>
	</g>
</g>
</svg>
