<?xml version="1.0" encoding="utf-8"?>
<!-- Generator: Adobe Illustrator 16.0.0, SVG Export Plug-In . SVG Version: 6.00 Build 0)  -->
<!DOCTYPE svg PUBLIC "-//W3C//DTD SVG 1.1//EN" "http://www.w3.org/Graphics/SVG/1.1/DTD/svg11.dtd">
<svg version="1.1" id="Capa_1" xmlns="http://www.w3.org/2000/svg" xmlns:xlink="http://www.w3.org/1999/xlink" x="0px" y="0px"
	 width="595.279px" height="595.281px" viewBox="0 123.305 595.279 595.281" enable-background="new 0 123.305 595.279 595.281"
	 xml:space="preserve">
<g>
	<g>
		<path fill="#55565A" d="M585.359,282.046c5.953,0,9.921-3.969,9.921-9.921V133.226c0-5.953-3.968-9.921-9.921-9.921h-218.27
			c-5.952,0-9.921,3.969-9.921,9.921v59.528H238.113v-59.528c0-5.953-3.969-9.921-9.922-9.921H9.921
			c-5.952,0-9.921,3.969-9.921,9.921v138.899c0,5.953,3.969,9.921,9.921,9.921h89.292v49.606H9.921
			c-5.952,0-9.921,3.969-9.921,9.921v138.898c0,5.953,3.969,9.922,9.921,9.922h178.584v-19.842H19.843V351.496h208.348v-19.843
			H119.056v-49.606h109.135c5.953,0,9.922-3.969,9.922-9.921v-59.528h119.056v59.528c0,5.953,3.969,9.921,9.921,9.921h99.214v49.606
			h-99.214v19.843h208.349v119.057H406.775v19.842h178.584c5.953,0,9.921-3.969,9.921-9.922V341.574
			c0-5.953-3.968-9.921-9.921-9.921h-99.213v-49.606H585.359z M218.27,262.204H19.843V143.147H218.27V262.204z M377.011,143.147
			h198.427v119.056H377.011V143.147z"/>
		<path fill="#82BC00" d="M347.246,510.238h-99.213c-38.693,0-69.449,30.756-69.449,69.449v138.898h19.843V579.687
			c0-27.779,21.827-49.607,49.606-49.607h12.897l27.78,73.418c0.992,2.977,4.96,5.953,8.929,5.953s7.938-2.977,10.913-5.953
			l27.78-73.418h10.913c27.78,0,49.607,21.828,49.607,49.607v138.898h19.842V579.687
			C416.696,540.994,385.94,510.238,347.246,510.238z M298.632,571.75l-15.874-41.67h31.748L298.632,571.75z"/>
		<rect x="287.719" y="629.292" fill="#55565A" width="19.842" height="19.844"/>
		<rect x="287.719" y="668.978" fill="#55565A" width="19.842" height="19.844"/>
		<path fill="#82BC00" d="M287.719,500.316h19.842c27.78,0,49.607-21.826,49.607-49.607v-29.763
			c0-27.78-21.827-49.607-49.607-49.607h-19.842c-27.78,0-49.606,21.827-49.606,49.607v29.763
			C238.113,478.49,259.939,500.316,287.719,500.316z M257.954,420.945c0-16.867,12.898-29.764,29.765-29.764h19.842
			c16.867,0,29.765,12.897,29.765,29.764v29.763c0,16.867-12.897,29.764-29.765,29.764h-19.842
			c-16.866,0-29.765-12.896-29.765-29.764V420.945z"/>
		<rect x="228.191" y="609.451" fill="#82BC00" width="19.843" height="109.135"/>
		<rect x="347.246" y="609.451" fill="#82BC00" width="19.843" height="109.135"/>
		<rect x="49.607" y="172.912" fill="#82BC00" width="99.213" height="19.843"/>
		<rect x="49.607" y="212.597" fill="#82BC00" width="138.898" height="19.842"/>
		<rect x="406.775" y="381.26" fill="#82BC00" width="99.213" height="19.843"/>
		<rect x="406.775" y="420.945" fill="#82BC00" width="138.898" height="19.843"/>
		<rect x="406.775" y="172.912" fill="#82BC00" width="19.843" height="19.843"/>
		<rect x="446.46" y="172.912" fill="#82BC00" width="19.843" height="19.843"/>
		<rect x="486.146" y="172.912" fill="#82BC00" width="19.842" height="19.843"/>
		<rect x="525.83" y="172.912" fill="#82BC00" width="19.843" height="19.843"/>
		<rect x="406.775" y="212.597" fill="#82BC00" width="19.843" height="19.842"/>
		<rect x="446.46" y="212.597" fill="#82BC00" width="19.843" height="19.842"/>
		<rect x="486.146" y="212.597" fill="#82BC00" width="19.842" height="19.842"/>
		<rect x="525.83" y="212.597" fill="#82BC00" width="19.843" height="19.842"/>
		<rect x="49.607" y="381.26" fill="#82BC00" width="19.843" height="19.843"/>
		<rect x="89.292" y="381.26" fill="#82BC00" width="19.843" height="19.843"/>
		<rect x="128.978" y="381.26" fill="#82BC00" width="19.842" height="19.843"/>
		<rect x="168.662" y="381.26" fill="#82BC00" width="19.843" height="19.843"/>
		<rect x="49.607" y="420.945" fill="#82BC00" width="19.843" height="19.843"/>
		<rect x="89.292" y="420.945" fill="#82BC00" width="19.843" height="19.843"/>
		<rect x="128.978" y="420.945" fill="#82BC00" width="19.842" height="19.843"/>
		<rect x="168.662" y="420.945" fill="#82BC00" width="19.843" height="19.843"/>
	</g>
</g>
</svg>
