<?xml version="1.0" encoding="utf-8"?>
<!-- Generator: Adobe Illustrator 16.0.0, SVG Export Plug-In . SVG Version: 6.00 Build 0)  -->
<!DOCTYPE svg PUBLIC "-//W3C//DTD SVG 1.1//EN" "http://www.w3.org/Graphics/SVG/1.1/DTD/svg11.dtd">
<svg version="1.1" id="Capa_1" xmlns="http://www.w3.org/2000/svg" xmlns:xlink="http://www.w3.org/1999/xlink" x="0px" y="0px"
	 width="595.279px" height="595.281px" viewBox="0 123.305 595.279 595.281" enable-background="new 0 123.305 595.279 595.281"
	 xml:space="preserve">
<g>
	<g>
		<path fill="#55565A" d="M19.843,252.282h99.213c5.953,0,9.922-3.968,9.922-9.921v-99.213h327.403v49.607h19.843v-59.528
			c0-5.953-3.969-9.921-9.921-9.921H119.056l0,0c-0.992,0-1.984,0-2.977,0.992h-0.992c-0.992,0.992-1.984,0.992-2.976,1.984l0,0
			L2.977,235.416l0,0c-0.992,0.992-0.992,1.984-1.984,2.977v0.992c0,0.992-0.992,1.984-0.992,2.976l0,0v466.303
			c0,5.953,3.969,9.922,9.921,9.922H297.64v-19.844H19.843V252.282L19.843,252.282z M33.733,232.439l37.701-37.701l37.701-37.701
			v75.402H33.733z"/>
		<path fill="#82BC00" d="M525.83,510.238h-99.213c-38.693,0-69.449,30.756-69.449,69.449v138.898h19.843V579.687
			c0-27.779,21.826-49.607,49.606-49.607h12.897l27.78,73.418c0.992,2.977,4.96,5.953,8.929,5.953s7.938-2.977,10.913-5.953
			l27.78-73.418h10.913c27.78,0,49.607,21.828,49.607,49.607v138.898h19.842V579.687C595.28,540.994,564.524,510.238,525.83,510.238
			z M477.216,571.75l-15.874-41.67h31.748L477.216,571.75z"/>
		<rect x="466.303" y="629.292" fill="#55565A" width="19.843" height="19.844"/>
		<rect x="466.303" y="668.978" fill="#55565A" width="19.843" height="19.844"/>
		<path fill="#82BC00" d="M466.303,500.316h19.843c27.779,0,49.606-21.826,49.606-49.607v-29.763
			c0-27.78-21.827-49.607-49.606-49.607h-19.843c-27.78,0-49.607,21.827-49.607,49.607v29.763
			C416.696,478.49,438.523,500.316,466.303,500.316z M436.538,420.945c0-16.867,12.898-29.764,29.765-29.764h19.843
			c16.866,0,29.764,12.897,29.764,29.764v29.763c0,16.867-12.897,29.764-29.764,29.764h-19.843
			c-16.866,0-29.765-12.896-29.765-29.764V420.945z"/>
		<rect x="406.775" y="609.451" fill="#82BC00" width="19.843" height="109.135"/>
		<rect x="525.83" y="609.451" fill="#82BC00" width="19.843" height="109.135"/>
		<path fill="#55565A" d="M585.359,262.204h-29.764v-29.764c0-5.953-3.969-9.921-9.922-9.921H337.325v19.842h198.427v19.843h-29.765
			H228.191c-1.984,0-3.969,0.992-4.961,0.992l-78.378,29.764c-2.977,0.992-5.953,4.96-5.953,8.929c0,3.968,2.977,7.937,5.953,8.929
			l78.378,29.764c0.992,0,1.984,0.992,2.977,0.992s1.984,0,1.984,0h277.797h79.371c5.953,0,9.921-3.968,9.921-9.921v-59.528
			C595.28,266.172,591.312,262.204,585.359,262.204z M218.27,287.007v30.756l-41.67-15.874L218.27,287.007z M238.113,282.046
			h257.954v39.685H238.113V282.046z M575.438,321.731h-59.528v-39.685h59.528V321.731z"/>
		<rect x="59.528" y="401.103" fill="#82BC00" width="99.214" height="19.843"/>
		<rect x="59.528" y="440.789" fill="#82BC00" width="99.214" height="19.842"/>
		<rect x="59.528" y="480.472" fill="#82BC00" width="99.214" height="19.844"/>
		<rect x="59.528" y="520.158" fill="#82BC00" width="99.214" height="19.844"/>
		<rect x="198.427" y="401.103" fill="#82BC00" width="99.213" height="19.843"/>
		<rect x="198.427" y="440.789" fill="#82BC00" width="99.213" height="19.842"/>
		<rect x="337.325" y="401.103" fill="#55565A" width="49.606" height="19.843"/>
		<rect x="337.325" y="440.789" fill="#55565A" width="49.606" height="19.842"/>
		<rect x="198.427" y="480.472" fill="#82BC00" width="99.213" height="19.844"/>
		<rect x="198.427" y="520.158" fill="#82BC00" width="99.213" height="19.844"/>
		<rect x="59.528" y="569.765" fill="#55565A" width="19.843" height="19.842"/>
		<rect x="99.213" y="569.765" fill="#55565A" width="19.843" height="19.842"/>
		<rect x="138.899" y="569.765" fill="#55565A" width="19.843" height="19.842"/>
		<rect x="198.427" y="569.765" fill="#55565A" width="19.843" height="19.842"/>
		<rect x="238.113" y="569.765" fill="#55565A" width="19.842" height="19.842"/>
		<rect x="277.797" y="569.765" fill="#55565A" width="19.843" height="19.842"/>
		<rect x="59.528" y="609.451" fill="#55565A" width="19.843" height="19.842"/>
		<rect x="99.213" y="609.451" fill="#55565A" width="19.843" height="19.842"/>
		<rect x="138.899" y="609.451" fill="#55565A" width="19.843" height="19.842"/>
		<rect x="198.427" y="609.451" fill="#55565A" width="19.843" height="19.842"/>
		<rect x="238.113" y="609.451" fill="#55565A" width="19.842" height="19.842"/>
		<rect x="277.797" y="609.451" fill="#55565A" width="19.843" height="19.842"/>
		<rect x="59.528" y="649.136" fill="#55565A" width="19.843" height="19.842"/>
		<rect x="99.213" y="649.136" fill="#55565A" width="19.843" height="19.842"/>
		<rect x="138.899" y="649.136" fill="#55565A" width="19.843" height="19.842"/>
		<rect x="198.427" y="649.136" fill="#55565A" width="19.843" height="19.842"/>
		<rect x="238.113" y="649.136" fill="#55565A" width="19.842" height="19.842"/>
		<rect x="277.797" y="649.136" fill="#55565A" width="19.843" height="19.842"/>
	</g>
</g>
</svg>
