<?xml version="1.0" encoding="utf-8"?>
<!-- Generator: Adobe Illustrator 19.1.0, SVG Export Plug-In . SVG Version: 6.00 Build 0)  -->
<svg version="1.1" id="Capa_1" xmlns="http://www.w3.org/2000/svg" xmlns:xlink="http://www.w3.org/1999/xlink" x="0px" y="0px"
	 viewBox="-49 141 512 512" style="enable-background:new -49 141 512 512;" xml:space="preserve">
<style type="text/css">
	.st0{fill:#5D5D5D;}
	.st1{fill:#82BC00;}
</style>
<g>
	<g>
		<path class="st0" d="M189.9,452.5h-34.1V333c0-33.3-26.5-59.7-59.7-59.7H10.7c-33.3,0-59.7,26.5-59.7,59.7v119.5h17.1V333
			c0-23.9,18.8-42.7,42.7-42.7h11.1l23,60.6v75.9h17.1v-72.5l0.9-0.9l23.9-63.1h9.4c23.9,0,42.7,18.8,42.7,42.7v119.5h-25.6V341.5
			H96.1V461v85.3v76.8H61.9V469.5H79v-17.1H27.8v17.1h17.1v153.6H10.7V341.5H-6.3v290.1c0,5.1,3.4,8.5,8.5,8.5h51.2h51.2
			c5.1,0,8.5-3.4,8.5-8.5v-76.8h76.8c5.1,0,8.5-3.4,8.5-8.5V461C198.5,455.9,195.1,452.5,189.9,452.5z M54.3,326.2l-13.7-35.8h27.3
			L54.3,326.2z M181.4,469.5v34.1h-68.3v-34.1H181.4z M113.1,537.8v-17.1h68.3v17.1H113.1z"/>
		<path class="st0" d="M44.9,264.7h17.1c23.9,0,42.7-18.8,42.7-42.7v-25.6c0-23.9-18.8-42.7-42.7-42.7H44.9
			c-23.9,0-42.7,18.8-42.7,42.7v25.6C2.2,246,21,264.7,44.9,264.7z M19.3,196.5c0-14.5,11.1-25.6,25.6-25.6h17.1
			c14.5,0,25.6,11.1,25.6,25.6v25.6c0,14.5-11.1,25.6-25.6,25.6H44.9c-14.5,0-25.6-11.1-25.6-25.6V196.5z"/>
		<path class="st1" d="M454.5,452.5h-34.1V333c0-33.3-26.5-59.7-59.7-59.7h-85.3c-33.3,0-59.7,26.5-59.7,59.7v119.5h17.1V333
			c0-23.9,18.8-42.7,42.7-42.7h11.1l23,60.6v75.9h17.1v-72.5l0.9-0.9l23.9-63.1h9.4c23.9,0,42.7,18.8,42.7,42.7v119.5h-25.6V341.5
			h-17.1V461v85.3v76.8h-34.1V469.5h17.1v-17.1h-51.2v17.1h17.1v153.6h-34.1V341.5h-17.1v290.1c0,5.1,3.4,8.5,8.5,8.5h51.2h51.2
			c5.1,0,8.5-3.4,8.5-8.5v-76.8h76.8c5.1,0,8.5-3.4,8.5-8.5V461C463,455.9,459.6,452.5,454.5,452.5z M318.8,326.2l-13.7-35.8h27.3
			L318.8,326.2z M445.9,469.5v34.1h-68.3v-34.1H445.9z M377.7,537.8v-17.1h68.3v17.1H377.7z"/>
		<path class="st1" d="M309.4,264.7h17.1c23.9,0,42.7-18.8,42.7-42.7v-25.6c0-23.9-18.8-42.7-42.7-42.7h-17.1
			c-23.9,0-42.7,18.8-42.7,42.7v25.6C266.7,246,285.5,264.7,309.4,264.7z M283.8,196.5c0-14.5,11.1-25.6,25.6-25.6h17.1
			c14.5,0,25.6,11.1,25.6,25.6v25.6c0,14.5-11.1,25.6-25.6,25.6h-17.1c-14.5,0-25.6-11.1-25.6-25.6V196.5z"/>
	</g>
</g>
</svg>
