<?xml version="1.0" encoding="utf-8"?>
<!-- Generator: Adobe Illustrator 16.0.0, SVG Export Plug-In . SVG Version: 6.00 Build 0)  -->
<!DOCTYPE svg PUBLIC "-//W3C//DTD SVG 1.1//EN" "http://www.w3.org/Graphics/SVG/1.1/DTD/svg11.dtd">
<svg version="1.1" id="Layer_1" xmlns="http://www.w3.org/2000/svg" xmlns:xlink="http://www.w3.org/1999/xlink" x="0px" y="0px"
	 width="595.279px" height="595.281px" viewBox="0 123.305 595.279 595.281" enable-background="new 0 123.305 595.279 595.281"
	 xml:space="preserve">
<g>
	<g>
		<path fill="#55565A" d="M562.077,123.305H33.202c-6.549,0-11.857,5.309-11.857,11.858v571.563c0,6.551,5.309,11.859,11.857,11.859
			h528.875c6.549,0,11.858-5.309,11.858-11.859V135.163C573.936,128.614,568.626,123.305,562.077,123.305z M550.219,694.869H45.061
			V147.021h505.158V694.869z"/>
		<path fill="#55565A" d="M163.05,321.929c34.328,0,62.255-27.927,62.255-62.255s-27.927-62.255-62.255-62.255
			s-62.256,27.927-62.256,62.255S128.722,321.929,163.05,321.929z M163.05,221.135c21.25,0,38.539,17.289,38.539,38.539
			s-17.289,38.539-38.539,38.539s-38.539-17.289-38.539-38.539S141.8,221.135,163.05,221.135z"/>
		<path fill="#55565A" d="M267.994,271.532h214.633c6.55,0,11.858-5.309,11.858-11.858s-5.309-11.858-11.858-11.858H267.994
			c-6.549,0-11.857,5.309-11.857,11.858S261.446,271.532,267.994,271.532z"/>
		<path fill="#82BC00" d="M482.627,410.272h-43.875c-6.55,0-11.858,5.309-11.858,11.858s5.309,11.859,11.858,11.859h43.875
			c6.55,0,11.858-5.311,11.858-11.859S489.177,410.272,482.627,410.272z"/>
		<path fill="#82BC00" d="M163.05,484.386c30.272,0,55.554-21.723,61.108-50.396h169.532c6.55,0,11.858-5.311,11.858-11.859
			s-5.309-11.858-11.858-11.858H224.158c-5.555-28.674-30.836-50.397-61.108-50.397c-34.328,0-62.256,27.927-62.256,62.255
			C100.794,456.458,128.722,484.386,163.05,484.386z M163.05,383.592c21.25,0,38.539,17.289,38.539,38.539
			c0,21.25-17.289,38.539-38.539,38.539s-38.539-17.289-38.539-38.539C124.511,400.881,141.8,383.592,163.05,383.592z"/>
		<path fill="#55565A" d="M163.05,644.472c30.272,0,55.554-21.723,61.108-50.398h258.469c6.55,0,11.858-5.309,11.858-11.857
			s-5.309-11.857-11.858-11.857H224.158c-5.555-28.676-30.836-50.398-61.108-50.398c-34.328,0-62.256,27.928-62.256,62.256
			S128.722,644.472,163.05,644.472z M163.05,543.677c21.25,0,38.539,17.289,38.539,38.539s-17.289,38.539-38.539,38.539
			s-38.539-17.289-38.539-38.539S141.8,543.677,163.05,543.677z"/>
	</g>
</g>
</svg>
