<?xml version="1.0" encoding="utf-8"?>
<!-- Generator: Adobe Illustrator 19.1.0, SVG Export Plug-In . SVG Version: 6.00 Build 0)  -->
<svg version="1.1" id="Layer_1" xmlns="http://www.w3.org/2000/svg" xmlns:xlink="http://www.w3.org/1999/xlink" x="0px" y="0px"
	 viewBox="-49 141 512 512" style="enable-background:new -49 141 512 512;" xml:space="preserve">
<style type="text/css">
	.st0{fill:#5D5D5D;}
	.st1{fill:#82BC00;}
</style>
<g>
	<g>
		<path class="st0" d="M30.1,141c-43.6,0-79.1,35.5-79.1,79.1s35.5,79.1,79.1,79.1s79.1-35.5,79.1-79.1S73.7,141,30.1,141z
			 M30.1,282.5c-34.5,0-62.5-28-62.5-62.5s28-62.5,62.5-62.5s62.5,28,62.5,62.5S64.5,282.5,30.1,282.5z"/>
		<path class="st0" d="M30.1,317.9c-43.6,0-79.1,35.5-79.1,79.1s35.5,79.1,79.1,79.1s79.1-35.5,79.1-79.1S73.7,317.9,30.1,317.9z
			 M30.1,459.5c-34.5,0-62.5-28-62.5-62.5s28-62.5,62.5-62.5s62.5,28,62.5,62.5S64.5,459.5,30.1,459.5z"/>
		<path class="st0" d="M30.1,494.9c-43.6,0-79.1,35.5-79.1,79.1S-13.5,653,30.1,653s79.1-35.5,79.1-79.1S73.7,494.9,30.1,494.9z
			 M30.1,636.4c-34.5,0-62.5-28-62.5-62.5s28-62.5,62.5-62.5s62.5,28,62.5,62.5S64.5,636.4,30.1,636.4z"/>
		<path class="st1" d="M50.7,196.5L21.2,226L9.4,214.2c-3.2-3.2-8.5-3.2-11.7,0s-3.2,8.5,0,11.7l17.7,17.7c1.6,1.6,3.7,2.4,5.9,2.4
			c2.1,0,4.2-0.8,5.9-2.4l35.4-35.4c3.2-3.2,3.2-8.5,0-11.7C59.2,193.3,54,193.3,50.7,196.5z"/>
		<path class="st1" d="M50.7,373.4L21.2,403L9.4,391.1c-3.2-3.2-8.5-3.2-11.7,0s-3.2,8.5,0,11.7l17.7,17.7c1.6,1.6,3.7,2.4,5.9,2.4
			c2.1,0,4.2-0.8,5.9-2.4l35.4-35.4c3.2-3.2,3.2-8.5,0-11.7C59.2,370.2,54,370.2,50.7,373.4z"/>
		<path class="st0" d="M145.1,201.8h159.2c4.6,0,8.3-3.7,8.3-8.3s-3.7-8.3-8.3-8.3H145.1c-4.6,0-8.3,3.7-8.3,8.3
			S140.5,201.8,145.1,201.8z"/>
		<path class="st0" d="M145.1,254.9h309.6c4.6,0,8.3-3.7,8.3-8.3s-3.7-8.3-8.3-8.3H145.1c-4.6,0-8.3,3.7-8.3,8.3
			S140.5,254.9,145.1,254.9z"/>
		<path class="st0" d="M145.1,378.8h159.2c4.6,0,8.3-3.7,8.3-8.3c0-4.6-3.7-8.3-8.3-8.3H145.1c-4.6,0-8.3,3.7-8.3,8.3
			C136.8,375,140.5,378.8,145.1,378.8z"/>
		<path class="st0" d="M454.7,415.2H145.1c-4.6,0-8.3,3.7-8.3,8.3s3.7,8.3,8.3,8.3h309.6c4.6,0,8.3-3.7,8.3-8.3
			S459.3,415.2,454.7,415.2z"/>
		<path class="st0" d="M145.1,555.7h159.2c4.6,0,8.3-3.7,8.3-8.3c0-4.6-3.7-8.3-8.3-8.3H145.1c-4.6,0-8.3,3.7-8.3,8.3
			C136.8,552,140.5,555.7,145.1,555.7z"/>
		<path class="st0" d="M454.7,592.2H145.1c-4.6,0-8.3,3.7-8.3,8.3c0,4.6,3.7,8.3,8.3,8.3h309.6c4.6,0,8.3-3.7,8.3-8.3
			C463,595.9,459.3,592.2,454.7,592.2z"/>
	</g>
</g>
</svg>
